<svg width="532" height="841" viewBox="0 0 532 841" fill="none" xmlns="http://www.w3.org/2000/svg">
<path d="M295.504 0C300.624 0.9772 296.242 5.7543 297.004 8.5C297.405 9.9454 319.673 21.279 321.004 26.5C321.893 29.986 318.958 46.734 320.004 54.5C325.57 95.825 365.877 144.848 387.004 180.5C407.835 215.652 427.143 252.626 434.004 293.5L510.504 289L511.504 283L532.004 290.5L509.504 301V294L435.004 300.5C439.012 303.293 441.943 301.621 445 307L447.004 325.5C445.467 328.882 436.382 333.784 436.004 334.5C434.554 337.242 433.249 372.865 432.004 380.5C422.681 437.683 375.332 520.105 380.004 573.5C381.412 589.597 392.19 591.925 380.004 606.5C377.14 609.926 367.312 615.74 367.004 616.5C365.725 619.652 374.406 633.81 372.504 635L230.004 420.5C229.834 426.724 225.26 450.24 231.504 453C232.924 453.628 236.587 452.328 239.504 454C254.893 462.82 263.488 505.315 269.004 522.5C269.369 523.637 266.937 526.287 267.004 526.5C278.379 562.452 313.09 621.106 317.004 656.5C319.042 674.931 313.541 735.058 310.004 754.5C309.69 756.228 308.281 765.014 308.004 765.5C306.276 768.532 297.712 763.55 300.753 779.5C304.223 797.699 354.556 815.132 356.004 821.5C356.53 823.813 355.826 826.34 355.004 828.5C350.566 835.238 319.259 826.57 311.504 826C302.752 825.357 278.286 828.408 272.504 826C255.938 819.102 285.859 783.814 273.504 772C259.855 771.621 223.772 780.986 212.504 778C194.114 773.127 198.678 727.967 204.004 714.5C209.038 701.773 240.543 669.505 241.004 666.5C241.252 664.884 229.29 637.51 228.004 636.5C225.571 634.589 222.52 638.374 220.004 636.5L209.504 589C207.749 599.975 223.032 641.367 221.004 648.5C220.397 650.636 198.85 656.803 197.004 655.5C195.289 649.676 200.655 601.5 194.504 601C176.652 630.396 132.234 655.127 132 691.5C142.549 709.859 131 781 116.504 787C99.9226 793.026 53.6406 767.926 48.5036 769C41.6026 770.443 44.5426 806.243 46.0036 812.5C47.4046 818.502 62.761 835.484 55.253 839.5C53.377 840.504 27.372 841.18 24.753 840.5C17.117 838.517 15.456 815.265 11.5 808C10.014 805.272 1.0111 799.991 0.253097 796.5C-2.8549 782.191 24.75 773.152 23 758.5C22.534 754.594 12.1506 752.56 12.0036 747.5C11.9536 745.774 23.2336 719.46 25.0036 715.5C42.0116 677.446 57.4226 666.709 80.0036 636.5C89.3236 624.031 109.352 572.343 110.004 557.5C110.468 546.932 93.8646 554.115 95.0036 544.5C95.2436 542.473 113.087 515.85 116.004 509.5C120.881 498.883 135.382 447.127 144.504 445C147.22 444.367 149.395 447.147 152.004 445.5C150.894 442.012 151.576 430.556 150.004 428.5C147.648 425.419 139.815 429.251 137.004 419.5C131.672 401.003 133.666 366.458 121.004 348.5C111.013 334.33 98.1586 345.887 89.5036 343C87.4866 342.327 86.0256 337.23 85.5036 337C76.6996 333.125 40.8536 348.94 31.0036 329.5C25.6256 318.885 31.7156 309.148 40.5036 303C62.9806 287.274 91.9866 307.914 116.504 309C113.235 283.905 111.004 264.079 124.004 241.5C125.078 239.634 131.763 234.594 132.004 233.5C133.185 228.144 126.703 214.596 137.504 210C144.849 206.874 150.418 212.315 152.504 212C153.27 211.884 156.295 207.547 157.504 207C176.461 198.416 193.651 198.167 211.004 210.5L295.504 0ZM291.504 19L212.004 212.5C230.086 226.118 218.02 245.008 221.253 260.5C221.746 262.862 228.573 270.833 228.253 272.5C227.88 274.446 222.729 275.257 221.753 277C221.359 277.703 220.231 290.639 219.253 293C214.36 304.808 194.479 294.5 193.004 303.5C190.646 317.885 226.304 310.269 231.504 310C292.736 306.828 354.011 301.859 415.004 295.5C397.009 193.96 308.215 121.454 291.504 19ZM143.504 238C142.505 239.202 140.503 246.5 139.503 251C137.503 264.5 144.698 295.948 142.503 309C142.884 309.861 155.569 310.105 156.504 310C163.754 309.183 166.392 300.452 167.003 293.5C148.004 280.5 143.504 267 143.504 238ZM241.753 359.5C241.806 362.936 246.416 367.907 247.004 370.5C251.761 391.463 228.854 403.127 232.004 417.5L359.504 614C354.082 515.74 416.03 430.893 418.004 333.5C416.985 330.518 402.03 332.588 399 333C376.833 336.014 349.576 348.647 328.5 350.5C313.711 351.801 248.087 346.449 241.753 359.5C233.745 353.679 236.357 353.471 228.003 350C216.16 345.079 194.789 367.736 202.003 343C204.891 333.096 209.592 348.521 211.503 337.5H216.503C218.813 338.004 210.605 327.764 211.503 328C218.457 329.825 207.754 316.318 215.504 318C223.127 319.654 234.465 354.47 241.753 359.5ZM405.504 302L262.004 314.5C269.046 318.95 273.633 318.75 281.504 319C311.898 319.964 366.117 317.255 396.504 314C403.798 313.219 416.754 311.283 415.504 302C412.171 302.005 408.837 301.993 405.504 302Z" fill="#EDAFB8"/>
<path d="M144.5 445C147.216 444.367 149.391 447.147 152 445.5L230.5 453.5C231.5 453 237.083 452.424 240 454.096C255.389 462.916 263.484 504.815 269 522C269.449 523.398 268 525.404 267 526.5C280 563 314.5 621 317 657.5C319.038 675.931 313.537 736.058 310 755.5C309.686 757.228 308.855 764 308 765.5C306.815 767.579 302.5 766.5 299.5 770.5L273.5 772C259.851 771.621 222.768 782.082 211.5 779.096C193.11 774.222 197.674 729.063 203 715.596C208.034 702.869 239.539 670.601 240 667.596C240.247 665.977 229.286 637.51 228 636.5L209.5 589L201 596.096L194.5 601C176.648 630.396 135.234 655.223 135 691.596C145.549 709.955 135.575 780.8 115.5 788.096C98.9191 794.122 52.6372 769.022 47.5002 770.096L22.5002 759C21.5002 755.5 11.1472 753.656 11.0002 748.596C10.9512 746.867 22.2302 720.556 24.0002 716.596C41.0081 678.542 56.4192 667.805 79.0002 637.596C88.3202 625.127 108.348 573.439 109 558.596C109.464 548.028 92.8612 555.211 94.0002 545.596C94.2415 543.567 112.083 516.945 115 510.596C119.877 499.978 135.378 447.127 144.5 445Z" fill="#51687D"/>
<path d="M136.023 419.386C138.834 429.137 147.644 425.419 150 428.5L230 420.5L232 417.5C228.85 403.127 251.757 391.463 247 370.5C246.412 367.907 242.053 362.936 242 359.5C248.334 346.449 312.711 352.301 327.5 351C348.576 349.147 376.833 336.014 399 333L396.5 314C366.113 317.255 310.917 319.85 280.523 318.886C272.652 318.636 272.769 318.386 261.023 314.386C249.278 310.386 242.778 309.886 230.523 309.886C223.163 309.886 209.405 312.345 200.5 311.5L155.523 309.886C154.588 309.991 141.904 309.747 141.523 308.886H115.523C91.0063 307.8 62.0003 287.16 39.5233 302.886C30.7353 309.034 24.6453 318.771 30.0233 329.386C39.8733 348.826 75.7193 333.011 84.5233 336.886C85.0453 337.116 86.5063 342.213 88.5233 342.886C97.1783 345.773 110.032 334.216 120.023 348.386C132.685 366.344 130.691 400.889 136.023 419.386Z" fill="#51687D"/>
<path d="M356.5 821C355.054 814.632 304.466 797.2 301 779C299.607 771.685 300.851 769.302 302.5 768L273.5 772C285.84 783.815 255.954 819.102 272.5 826C277.958 828.276 302.759 825.357 311.5 826C319.246 826.57 351.067 835.238 355.5 828.5C356.816 826.5 357.025 823.313 356.5 821Z" fill="#F7E1D7"/>
<path d="M46.1945 812.223C44.7353 805.966 42.1074 770.443 49 769L22.2236 758.22C23.9715 772.873 -2.85391 781.913 0.250323 796.222C1.0074 799.714 8.754 805.495 10.2382 808.223C14.1894 815.489 17.0939 838.742 24.7206 840.725C27.3364 841.405 53.8093 840.729 55.683 839.725C63.1819 835.709 47.5938 818.226 46.1945 812.223Z" fill="#F7E1D7"/>
<path d="M221.981 260.189C218.752 244.696 230 223.5 211.5 217C184 217 188 235 185 249C180.137 271.694 159.307 276.023 167.048 293.191C166.437 300.144 163.741 309.183 156.5 310C155.418 313.667 157.509 320.793 174.288 321.193C191.068 321.593 198.669 314.956 200.5 311.5C195.396 310.504 192.716 307.786 193.5 303C194.743 295.404 215.096 305 219.984 293.191C220.96 290.83 221.588 277.893 221.981 277.19C222.956 275.447 228.6 274.136 228.973 272.19C229.292 270.523 222.474 262.551 221.981 260.189Z" fill="#F7E1D7"/>
<path d="M396.5 314L399 333C399 333 415.3 330.5 417.5 333.25C419.7 336 434 336.167 436 334.5C439 332 445 329.5 447 325.5C447.5 320.5 447.11 308.326 445.5 306C441 299.5 440.5 303.75 434.5 300.25C430.5 299.75 415.292 300.131 415.5 302C416.5 311 404 313.5 396.5 314Z" fill="#F7E1D7"/>
</svg>
