<svg width="446" height="755" viewBox="0 0 446 755" fill="none" xmlns="http://www.w3.org/2000/svg">
<path d="M139.029 49.5047C161.895 27.2381 189.082 7.07804 221.095 1.11804C234.349 -1.16196 247.815 0.41137 260.962 2.57137L261.509 3.03804C268.122 8.63804 276.602 11.558 282.735 17.8114C311.669 44.1314 322.242 84.1047 327.109 121.571C334.055 184.905 325.642 249.225 307.988 310.211C292.668 364.798 269.362 417.238 238.175 464.638C222.695 486.545 206.202 507.998 185.989 525.811C168.149 541.798 148.162 556.278 125.095 563.571C103.895 570.585 79.5485 570.425 59.6818 559.518C34.8552 544.891 20.6152 517.918 11.9086 491.358C4.57523 466.798 0.348551 441.158 0.228551 415.505C-2.33145 336.691 16.8019 258.318 48.2019 186.411C70.8952 136.345 100.215 88.7181 139.029 49.5047Z" fill="#EDAFB8"/>
<path d="M282.735 17.8114C276.602 11.5581 268.122 8.63809 261.508 3.03809C272.215 4.29142 282.988 6.23809 293.055 10.2114C311.428 17.9314 326.122 32.6248 336.535 49.3714C350.682 72.1714 357.668 98.6647 361.522 124.998C369.282 177.038 363.842 230.091 353.188 281.331C346.442 310.838 338.282 340.105 327.242 368.318C326.575 369.745 326.255 371.225 326.282 372.771C365.628 499.998 405.988 626.958 445.135 754.265C433.375 754.411 421.575 754.811 409.842 754.011C374.948 642.985 340.348 531.838 305.202 420.865C295.108 440.571 283.975 459.758 271.535 478.078C267.855 482.678 269.695 488.865 269.642 494.238C275.135 580.811 281.175 667.331 286.388 753.918C280.455 753.878 274.535 753.931 268.628 754.025C262.815 682.438 259.508 610.651 254.228 539.025C246.615 544.851 239.988 551.825 232.988 558.345C232.362 548.425 231.642 538.518 231.028 528.611C203.682 555.585 168.895 579.571 129.068 579.905C118.002 580.051 107.188 577.478 96.615 574.531C93.495 585.171 90.0017 595.718 87.3617 606.505C83.615 606.491 79.8817 606.598 76.1617 606.718C73.4284 616.558 70.2683 626.265 67.695 636.145C70.855 636.345 74.0283 636.545 77.215 636.891C77.175 637.465 77.095 638.611 77.055 639.185C76.8283 641.931 76.1216 644.598 75.3483 647.238C65.6816 678.998 56.7083 710.971 47.1883 742.785C45.8683 746.345 45.735 750.665 43.295 753.651C37.135 754.118 30.9351 753.651 24.7617 753.798C33.6951 721.345 43.575 689.158 53.1217 656.878C57.935 639.651 62.655 622.385 68.3483 605.425C69.4016 601.505 71.735 596.825 68.7217 593.198C64.0817 586.518 59.855 579.585 55.7883 572.558C56.7617 568.118 58.1483 563.785 59.6816 559.518C79.5483 570.425 103.895 570.585 125.095 563.571C148.162 556.278 168.148 541.798 185.988 525.811C206.202 507.998 222.695 486.545 238.175 464.638C269.362 417.238 292.668 364.798 307.988 310.211C325.642 249.225 334.055 184.905 327.108 121.571C322.242 84.1048 311.668 44.1314 282.735 17.8114Z" fill="#010201"/>
<path d="M55.7886 572.558C59.8552 579.585 64.0819 586.518 68.7219 593.198C71.7353 596.825 69.4019 601.505 68.3486 605.425C62.6552 622.385 57.9352 639.651 53.1219 656.878C43.5752 689.158 33.6953 721.345 24.762 753.798C17.282 753.878 9.78859 753.985 2.30859 753.905C19.6553 693.318 38.4019 633.131 55.7886 572.558Z" fill="#8C6351"/>
<path d="M232.989 558.345C239.989 551.825 246.615 544.851 254.229 539.025C259.509 610.651 262.815 682.438 268.629 754.025C260.949 754.265 253.255 754.465 245.589 753.958C242.922 715.145 240.509 676.291 237.882 637.465C237.535 627.398 238.109 617.065 235.669 607.238C232.629 606.851 233.549 610.558 233.549 612.451C234.735 620.438 234.669 628.691 237.029 636.451C185.909 636.798 134.775 636.531 83.6554 636.545C81.0554 636.238 78.882 637.505 77.0553 639.185C77.0953 638.611 77.1753 637.465 77.2153 636.891C74.0287 636.545 70.8553 636.345 67.6953 636.145C70.2686 626.265 73.4287 616.558 76.162 606.718C79.882 606.598 83.6153 606.491 87.362 606.505C133.709 606.838 180.042 606.438 226.389 606.665C229.455 606.771 232.522 606.385 235.562 605.865C236.002 590.011 233.202 574.225 232.989 558.345Z" fill="#8D6250"/>
<path d="M233.548 612.451C233.548 610.558 232.628 606.851 235.668 607.238C238.108 617.065 237.534 627.398 237.881 637.465L237.028 636.451C234.668 628.691 234.734 620.438 233.548 612.451Z" fill="#160601"/>
<path d="M186.015 65.998C203.841 57.758 225.495 54.7847 243.681 63.6247C261.388 72.0647 273.015 89.3847 280.388 106.985C293.962 141.371 295.388 179.051 293.521 215.545C288.401 275.851 271.002 334.905 243.708 388.865C225.628 423.225 203.442 456.145 173.762 481.571C157.268 495.291 137.988 507.038 116.322 509.691C96.3482 512.825 75.4815 503.971 62.6415 488.598C46.9348 470.945 40.0148 447.678 35.6148 424.945C32.0015 404.558 32.1082 383.851 32.2148 363.225C35.0415 312.358 47.4682 262.185 67.2148 215.278C85.4015 173.465 108.748 133.331 140.495 100.305C153.762 86.598 169.015 74.7047 186.015 65.998Z" fill="#FEFFFD"/>
<ellipse cx="159.854" cy="283.417" rx="84.7984" ry="170.595" transform="rotate(18.2428 159.854 283.417)" fill="#EDAFB8"/>
<path d="M202.854 188.531C193.694 179.318 178.507 180.478 168.107 186.904C148.134 198.824 134.667 218.811 124.214 239.104C117.387 251.051 113.147 264.211 109.347 277.371L107.481 283.491C106.761 287.011 106.067 290.544 105.387 294.078C100.827 316.824 99.4274 341.451 107.667 363.518C112.094 375.358 122.721 386.611 136.361 385.411C155.614 384.078 169.481 368.211 180.454 353.891C205.241 318.264 219.841 274.691 218.294 231.064C217.281 215.971 214.001 199.558 202.854 188.531Z" fill="white"/>
<ellipse cx="160.051" cy="283.928" rx="21.327" ry="37.1357" transform="rotate(17.3145 160.051 283.928)" fill="#EDAFB8"/>
</svg>
