<svg width="290" height="141" viewBox="0 0 290 141" fill="none" xmlns="http://www.w3.org/2000/svg">
<path d="M217.636 14.2603C217.075 12.1565 217.122 10.0664 218.385 8.00363C219.632 6.63759 220.878 5.27157 223.309 5.32628L283.731 0.208543C286.86 -0.298992 289.05 0.163338 289.401 1.12643C289.751 2.08951 287.917 4.03204 285.387 5.99723C283.351 8.04234 234.643 45.2842 234.643 45.2842C232.804 45.9399 230.965 46.5956 229.157 45.8578C227.35 45.1201 226.165 43.6994 225.605 41.5956L222.801 31.0767L68.6569 98.7071L59.0076 122.19C58.3685 123.569 57.1216 124.935 55.8905 125.605L26.997 139.593C24.5346 140.931 22.1193 140.18 20.3274 138.746C18.5355 137.311 17.9905 134.511 18.661 131.737L21.9976 118.569L2.34583 127.188L-0.000178641 120.194L17.8127 112.23L10.006 107.872C7.60638 106.424 6.43792 104.306 6.50063 101.52C6.56335 98.7328 7.82589 96.6701 10.2882 95.3314L38.5583 82.0266C39.7894 81.3572 41.6127 81.3982 42.8125 82.1223L65.6875 92.3958L220.439 24.7791L217.636 14.2603Z" fill="#EDAFB8"/>
</svg>
