<?xml version="1.0" encoding="UTF-8"?>
<svg id="Layer_1" data-name="Layer 1" xmlns="http://www.w3.org/2000/svg" viewBox="0 0 1614.63 2839.15">
  <defs>
    <style>
      .cls-1 {
        fill: #895d66;
      }

      .cls-2 {
        fill: #edafb8;
      }

      .cls-3 {
        fill: #f7e1d7;
      }

      .cls-4 {
        fill: #5d816e;
      }

      .cls-5 {
        fill: #0e0b09;
      }
    </style>
  </defs>
  <path class="cls-4" d="M800.85,202.58c24.93,14.09,32.44,38.42,37.27,64.11,1.19,6.31,1.42,13,.83,19.4-5.74,62.37,2.41,121.75,27.83,180.07,17.98,41.25,6.85,85.29-22.5,111.12,7.46-28.73,9.57-53.64,9.01-78.79-.67-30.06-7.24-57.86-28.45-80.43-4.84-5.15-7.15-10.25-6.17-17.36,6.94-50-5.08-99.96-.44-150.04,1.68-18.14-11.13-31.55-19.47-46.2.68-.63,1.37-1.25,2.07-1.86ZM728.97,1021.69c.32-5.45,3.52-7.19,6.82-8.84,32.5-63.72,85.65-85.83,154.69-81.2,26.88,1.8,45.71-8.89,69.96-18.48-22.69-10.98-43.72-16.11-65.72-17.39-156.56-9.1-230.52,92.02-258.62,224.06-2.34,11.01-1.9,22.42,13.96,26.19,14.03,3.33,8.08,13.01,3.86,21.02-4.56,8.66-10.87,17.59-2.04,26.66,15.09,15.49,18.44,35.65,23.48,55.22q13.96,54.19,68.53,46.46c22.7-3.22,54.15-25.25,54.58-41.34.57-21.56,8.69-33.65,30.67-35.8,9.63-.94,15.78-7.27,12.68-16.69-9.4-28.62,8.1-38.32,30.21-44.92,22.98-6.86,39.08-19.35,40.2-45.41.48-11.14,6.62-15.79,17.53-15.16,14.61.84,25.47-6.43,31.89-18.47,25.2-47.25,41.64-98.64,72.44-147.51-23.41,4.87-42.34,8.2-60.06,16.03-1.11,34.64-3.26,68.36-30.43,93.81.92-28.2,22.79-54.81,3.64-83.89-12.05.63-22.09,6.1-32.35,10.75q-48.7,22.08-39.51,73.31c4.14,23.08-7.72,52.49-30.33,65.89,19.29-35.44,16.01-66.6-2.62-100.55-35.87,30.14-63.69,64.31-89.5,100.53,24.5-59.08,64.71-106.15,117.55-148.26-43.07-2.02-69.51,7.87-96.13,27.6-12.6,9.34-21.34,24.46-38.32,27.72.83,5.38-1.17,8.17-7.03,8.66ZM1545.07,905.28c.34,20.3,18.38,27.71,30.4,37.84,19.24,16.21,21.45,33.14,14.9,55.91-13.74,47.76-31.96,93.46-56.54,136.57-14.68,25.75-33.41,47.81-60.6,61.37-71.12,35.47-73.66,93.41-56.95,142.13,2.28,6.66,1.82,16.16,12.31,14.55,9.26-1.42,8.86-10.13,9.78-17.34,2.85-22.26,2.69-45.16,17.08-65.84,0,14.32.61,28.67-.11,42.95-2.66,52.55-5.87,105.07-8.67,157.61-8.47,158.61-19.01,317.09-21.46,476.02-.95,61.44-6.86,122.88-8.02,184.45-1.96,104.55-10.04,208.93-9.02,313.57.45,46.23,5.3,92.11,12.25,137.71,1.99,13.06.5,22.03-12.25,27.79-16.28,7.36-24.39,23.13-35.14,36.01-7.6-2.05-4.6-8.02-4.55-12.03,2.02-157.39,3.12-314.8,6.94-472.14,1.77-73,3.72-145.86-.27-218.83-.95-17.4-4.73-33.37-15.7-50.08,25.68-5.13,22.24-23.05,19.52-40.9-6.63-43.5-15.31-85.86-47.27-119.69-11.71-12.39-3.49-29.48-8.27-50.07,44.8,34.41,61.64,77.4,71.09,127.19,9.94-31.67,10.1-31.7,4.7-62.43-9.24-52.59,4.67-104.3,6.4-156.49,3.09-93.4,4.6-186.42-13.72-278.5-10.29-51.71,8.69-102.5,55.47-126.12,37.61-18.98,59.96-47.56,74.34-85.46,8.6-22.68,19.58-44.47,29.78-66.53,29.73-64.25,28.8-68.9-24.05-112.74.86-10.82,8.65-14.28,17.74-16.38,0,0-.11-.1-.11-.1ZM833.16,1328.34c-1.47,5.99-1.78,8.87-2.23,8.89-32.17,1.44-53.98,31.61-86.68,31.27-8.25-.09-18.33-1.13-23.17,4.95-15.95,20.01-33.42,10.94-52.04,6.22-48.07-12.19-96.24-6.86-144.54,2.99,49.35,9.74,102.15-2.89,153.24,24.46-33.17,13.18-64.87,22.12-92.86,39.06-13.17,7.97-28.68,13.54-39.2,24.11-24.99,25.11-52.7,23.51-82.93,14.56-22.01-6.51-44.41-10.23-66.08,1.42-3.98,2.14-9.07,4.19-10.12,15.11,38.72-21.8,73.27-2.27,113.36,5.31-35.95,49.69-63.38,103.55-132.41,111.34,14.48,3.04,26.55-5.2,40.89,1.35-12.49,17.02-31.33,24.16-46.78,34.97-13.19,9.23-22.89,20.6-22.97,34.93-.18,31.27-23.87,36.49-44.52,48.09-4.68-17.06-1.43-33.11,4.03-44.88,20.82-44.85,15.88-95.43,35.48-140.97,10.01-23.26,12.09-49.93,28.34-71.75,22.86-30.69,50.08-55.07,86.47-68.08,13.5-4.83,24.8-11.4,29.92-26,3.92-11.17,13.55-15.62,24.45-17.57,27.05-4.83,50.43-16.87,71.21-34.76,18.59-16,38.66-20.43,62.9-10.77,28.55,11.37,58.79,9.27,88.85,4.81,35.22-5.23,70.44-5.41,107.39.93ZM1223.05,1134.77c51.61,24.81,90.15,64.76,124.41,109.14,10.32,13.37,7.29,27.89-6.93,38.18-11,7.95-18,18.08-21.9,31.05-1.56,5.19-4.71,10.92-8.88,14.15-25.39,19.67-49.85,40.43-74.7,65.25-4.02-26.27-8.5-48.98-22.34-68.51-8.58-12.11-18.48-22.65-32.11-28.82-14.65-6.64-32.99-8.05-33.07-31.29-.03-7.39-10.36-11.16-17.31-10.85-29.01,1.28-48.01-16.8-67.92-33.29-16.2-13.43-30.9-29.05-48.38-40.47-34.41-22.47-33.72-56.14-27.78-88.83,3.89-21.43,17.52-41.08,27.65-63.44,7.48,6.73,12.71,11.44,19.79,17.81-7.83,6.96-14.84,13.18-21.83,19.41-2.17,1.45-6.97,2.08-4.5,5.57,2.05,2.89,5.26.16,7.22-2.3,40.22-26.03,74.64-6.14,113.53,13.18-36.23,20.19-71.69,37.25-64.53,87.94,10.88-6.32,10.17-15.25,12.41-22.18,7.27-22.53,40.28-51.55,61.87-53.37,2.89-.24,6.66.62,8.83,2.41,25.5,21.01,52.56,40.66,68.02,72.96-23.67,21.85-55.04,38.75-50.15,78.27,4.42-13.15,10.7-25.54,20.45-35.19,10.28-10.17,21.3-20.03,38.63-24.82,27.38,49.82,7.75,104.44,16.35,160.29,11.8-23.64,3.67-48.22,15.32-68.38,15.81,10.14,10.1,27.24,15.53,40.85,9.1-43.26-25.89-79.52-18.72-123.2,36.85,17.16,54.5,49.09,61.08,89.2,3.98-49.2-20.72-90.86-64.61-112.63-15.61-7.74-23.37-21.21-25.26-38.27l-.16.18ZM1202.03,1631.28c28.78,24.78,36.39,58.79,52.24,94.09-2-38.95-14.69-68.77-32.41-95.53-27.37-41.32-18.02-84.03-11.86-132.01,23.87,25.25,36.54,52.14,50.98,77.84,23.86,42.47,36.32,87.85,36.13,136.78-.07,17.57-5.35,29.66-23.94,33.99-16.82,3.91-26.48,14.1-26.66,32.66-.23,23.82-10.78,41.7-32.74,52.53-13.31,6.56-24.82,16.46-32.93,28.37-41.23,60.61-103.1,94.96-164.02,130.47-17.27,10.06-32.68,23.71-52.46,29.46-4.74-6.23.51-9.73,3.16-12.9,19.84-23.68,31.4-50.78,34.57-81.44,4.05-39.08,30.13-60.42,63.2-79.71,7.18,27.84-1.52,52.2-6.03,77.37,21.52-13.49,26.05-35.64,26.04-57.21,0-24.03,7.74-40.58,26.18-56.38,16.2-13.89,27.26-33.76,41.36-51.98,13.66,27.62-1.42,56.25,2.77,86.8,23.66-34.03,22.33-70.32,17.74-105.89-1.77-13.77-.57-24.59,4.35-36.96,8.66-21.75,15.43-44.25,24.32-70.35ZM1055.55,1930.03c-1.41-.21-2.66-.74-3.73-.49-2.15.5-2.27,1.75-.4,2.93.52.32,1.55.53,1.92.25.83-.65,1.39-1.64,2.21-2.68ZM1406.18,1180.17c-14.19-54.77-7.12-112.06-28.52-164.8,21.75,24.98,28.67,58.96,53.45,89.73,8.42-46.35-16.94-76.8-30.06-111.96,31.17-50.84-28.48-51.76-46.15-78.35,48.92-40.18,111.7-72.24,98.07-153.42-8.67,71.86-61.49,99.89-117.77,125.49-2.35-3.73-3.49-4.95-3.98-6.39-11.79-35.08-8.4-65.61,25.89-87.09,2.6-1.63,4.83-4.6,6.15-7.45,14.45-31.37,40.67-40.91,72.89-40.41,31.84.49,52.54,19.65,70.01,42.57,35.41,46.46,23.54,103.08-27.52,133.02-21.26,12.46-43.51,23.22-67.81,36.07,20.9,18.88,25.67,40.78,27.26,64.59,2.2,32.92,6.31,65.41,5.94,98.82-.33,30.09-12.26,46.09-37.86,59.58ZM1380.19,734c-62.14,27.12-124.34,54.11-186.36,81.49-9.47,4.18-17.66,2.58-25.04-3.09-59.49-45.74-107.27-102.88-154.75-160.24-2.83-3.41-5.53-8.24-2.26-15.21,37.66-18.14,75.69-31.2,117.73-5.26,20.33,12.55,43.91,19.84,70.85,31.63-30.83,8.06-61.98-.95-87.25,25.08,43.21-6.68,82.23-16.01,118.32,9.97-9.87,13.71-27.38,18.63-37.46,39.6,63.71-30.05,124.46-15.84,186.22-3.97ZM1198.21,628.61c-18.52-5.89-30.12-18.15-41.16-34.63-70.5-105.18-146.22-206.39-236.3-296.01-14.36-14.29-28.56-28.68-45.01-40.8-11.04-8.14-17.89-19.69-25.16-31.77-24.46-40.65-59.18-70.06-105.08-84.48-10.44,14.93-7.36,28.01,1.39,40.82,4.57,6.7,8.18,14.28,13.68,20.1,25.28,26.74,35.23,56.65,25.55,93.5-5.01,19.08,2.88,38.42,6.89,57.45,11.57,54.77-1.31,74.33-55.7,86.57-18.72,4.21-37.22,9.43-60.36,15.34,15.78-18.98,33.87-24.29,50.58-31.5,23.57-10.18,35.56-26.38,33.46-53.02-3.12-39.57,2.8-79.61-5.48-118.94-1.65-7.85-3.43-16.22-7.5-22.93-16.53-27.19-32.27-53.14-21.73-88.16,6.02-20.01-10.32-31.96-27.4-40.5-8.8-4.4-20.76-5.7-23.48-20.17,29.54-5.89,58.55-6.38,78.38,18.04,48.53,59.74,111.65,103.55,166.25,156.59,90.97,88.38,161.26,192.55,230.23,297.76,16.39,25,36.94,47.22,49.7,74.6-.57.73-1.16,1.45-1.76,2.16ZM1126.28,1588.6c29.78-2.46,48.39-23.63,69.04-42.76,3.21,60.01-12.54,91.69-66.87,136.12q12.61.16,37.6-13.48c-9.23,64.26-72.59,144.24-127.22,160.58-14.26-27.31-14.55-51.89,12.56-72.35,7.66-5.79,14.25-13.43,19.99-21.21,5.71-7.73,14.12-16.93,13.68-25.07-1.35-25.37-8.5-50.15,10.11-73.5,5.79-7.26-10.73-10.27-12.67-19.92,8.11-21.56,24.92-38.02,41.31-54.79,4.97-5.08,14.89-11.1,9.94-17.46-13.75-17.65.21-27.47,7.65-40.07,10.02-16.98,17.69-35.22,13.21-55.51-2.52-11.4-7.55-22.85,6.74-29.25,12.91-5.79,18.59,6.13,26.04,12.88,2.32,2.1,3.9,5,7.27,9.44-11.36,3.42-18.92,6.91-11.32,21.25,17.84,33.68,13.57,56.3-13.67,83.13-14.27,14.06-30.14,26.5-45.28,39.68-1.89,1.24-3.8,2.47-5.71,3.69,3.26,3.46,5.53,1.61,7.6-1.4ZM140.91,208.53c24.45-33.1,47.83-67.22,77.38-96.03,40.76-39.74,94.58-51.32,147.28-63.87,31.39-7.48,63.56-11.7,95.4-17.25,43.17-7.52,74.99,16.08,109.47,37.4-26.82,21.56-55.09,14.53-81.92,12.18-66.08-5.79-130.86,1.2-194.68,17.56-29.85,7.65-54.11,25.55-72.6,50.25-17.25,23.05-40.94,38.47-63.16,55.69-4.52,3.5-9.64,6.01-15.69,5.51l-1.48-1.44ZM682.14,1436.76c-89.86,68.05-172.55,143.85-246.61,228.9-10.06,11.55-18.66,24.37-27.86,36.66-11.06,14.77-24.32,25.58-45.68,25.51,1.24-21.34,1.97-40.03,22.53-54.63,34.01-24.15,57.62-59.08,79.73-93.49,48.2-75.05,116.14-119.77,201.3-140.86,5.43-1.34,11.2-1.29,16.81-1.89l-.21-.2ZM1119.94,828.76c3.52,19.2,23.06,23.07,36.4,37.43-6.84,0-11.23.44-15.5-.08-14.17-1.71-35.35,7.3-41.16-4.8-8.92-18.6-23.75-36.45-21.72-59.79,1.1-12.67.2-25.51.2-41.64,23.01,12.53,33.26,34.13,51.34,46.82.64.45,1.06,1.22,1.62,1.8,43.28,44.91,46.73,45.55,101.5,18.96,32.5-15.78,61.13,2.02,61.87,38.46-64.16,15.74-119.61-7.62-173.36-38.59-2.14-4.4-5.79-5.25-10.19-4.31-.57-.76-1.14-1.52-1.71-2.28.08.43,0,1.04.27,1.26.45.39,1.11.54,1.68.79,1.24,4.48,4.53,5.94,8.79,5.97ZM1081.92,929.66c66.72-59.43,274.85-.86,292.09,83.78-85.33-80.63-185.38-93.7-292.09-83.78ZM1133,1439.64c-19.39-.05-32.94,4.07-47.1,13.11-5.31-17.56-4.38-35.02-15.21-48.77-10.72-13.6-25.31-22.32-38.36-32.84q5.41-12.36,46.45-28.75c26.02,26.8,41.18,59.39,54.22,97.25ZM931.09,1358.61c-23.44,12.18-48.86,14.98-69.61,30.32-2.68,1.98-8.44,2.51-11.39,1.01-32.8-16.67-61.18-.92-90.08,11.55-8.08,3.48-16.08,7.68-27.06,4.05,2.11-14.91,13.64-16.33,24.33-16.18,13.96.2,23.22-9.71,34.29-13.5,32.27-11.05,63.62-27.59,98.21-29.26,13.54-.65,27.53,7.74,41.31,12.01ZM1218.93,1465.35c34.95,26.47,67.28,55.47,88,95,12.4,23.65,12.84,47.11,1.26,75.99-19.12-64.63-56.45-115.92-91.31-168.61.63-.84,1.31-1.64,2.06-2.38ZM641.02,146.1c-3.96-25.7-21.97-38.28-39.34-51.55,26.47-14.93,88.54,4.08,101.17,29.94,3.47,7.12,5.11,13.81.56,20.4-4.92,7.13-12.27,7.29-19.39,3.78-12.84-6.32-26.15-6.64-43-2.57ZM1115.27,1310.26c-13.9,16.84,5.87,23.54,8.03,36.83-11.99-4.17-22.9-7.97-33.85-11.77,5.03-19.59,11.08-38.12,33.72-42.98,21.92,23.97,74.34,13.83,76.51,63.87-5.88,3.02-12.87,6.62-20.27,10.43-20.19-20.28-36.22-45.34-64.15-56.38ZM1386.66,2737.8c5.11-31.15,5.59-63.45,26.42-89.29,4.53-5.63,7.57-16.79,18.21-10.1,8.37,5.26,6.96,13.85,2.98,21.62-13.88,27.08-27.62,54.25-47.61,77.78ZM1311,810.57c-8.3-4.37-11.8-10.02-12.93-19.36,20.27-9.92,40.73-19.94,67.01-32.81-15.62,26.86-36.59,37.87-54.08,52.17Z"/>
  <path class="cls-2" d="M531.31,267.64c17.19-31.75,19.66-41.31,16.93-67.68-10.76,5.21-9.92,16.21-13.2,24.23-13.49,32.97-31.84,61.92-66.1,76.14-51.95,21.57-99.12,55.14-157.39,61.2-19.22,2-28.62,19.08-39.14,33.76-44.9,62.66-102.97,99.88-183.37,91.64-20.32-2.08-39.19-9.2-59.25-19.57,7.81-19.87,21.63-39.12,21.71-58.43.17-44.74,20.73-69.94,61.13-82.71,9.35.17,9.39,6.78,9.37,13.48-.03,12.89-.24,25.79.02,38.67.57,27.59,14.45,37.26,38.51,25.21,36.45-18.25,69.74-42.47,107.78-57.82,0,0,.19-.03.19-.03,6.49.34,12.73.16,15.53-7.72-5.96-4.69-11.79-2.33-17.61-.39-28.81-5.35-57.64-3.99-90.12,1.33-2.48-49.17,12.14-91.13,38.07-130.05,8.26.05,12.27-6.72,17.98-10.93,46.96-34.65,97.35-61.32,156.85-66.38-47.46,20.76-87.02,52.6-123.82,88.3-4.3-5.6,1.24-15.24-8.89-19.51-12.13,7.83-22.02,18.18-26.72,32.57-6.25,19.16-11.69,38.58-17.64,57.84-2.47,7.98-10.62,15.36-1.22,24.15,8.32,7.78,17.57,7.1,27.25,4.04,9.21-2.91,19.28-4.53,27.34-9.41,44.6-26.97,75.92-67.26,105.46-110.08-52.13,16.14-74.32,81.49-136.9,85.73,3.32-17.3,6.42-31.99,13.49-45.73,4.02-7.82,2.09-20.79,16.95-18.73.23,3.73-3.25,7.63,2.63,13.37,9.45-6.93,19.34-14.18,29.23-21.43,8.28,2.27,12.89-1.51,15.16-9.17,0,0,0,.04.01.04,1.87-1.27,3.74-2.55,5.61-3.82,0,0,.21-.12.21-.12,9.31.94,16.7-3.38,24.67-7.61,40.99-21.75,84.5-33.82,131.33-31.72-12.07,19.87-37.61,26.69-47.29,48.86-23.8,9.75-39.78,26.91-48.74,51.54,15.53-5.3,29.57-12.5,42.62-21.2,35.01-23.35,70.64-44.97,111.28-57.85,36.63-11.61,69.56-8.62,100.18,15.94,12.44,9.98,26.55,17.89,39.9,26.74,0,0,.23.29.24.29,0,5.39.67,10.44,6.39,13.02,16.37,56.77-5.65,104.88-34.87,150.97-8.64,13.62-19.97,25.51-29.82,38.4-19.34,25.3-31.69,53.08-27.04,85.77,4.03,28.36-6.06,50.5-26.92,69.09-14.52,12.94-28.61,26.4-42.27,40.24-28.22,28.6-60.54,45.53-102.22,39.78-19.27-2.66-36.7,3.77-53.04,13.92-17.21,10.69-36.03,14.74-55.99,10.34-14.1-3.11-25.2-10.03-29.84-25.26-4.45-14.63,4.62-23.37,13.12-31.58,14.05-13.58,31.27-22.99,48.13-32.73,62.12-35.91,118.91-78.73,168.62-130.65,25.61-26.75,41.73-58.96,56.62-97.83-14.73,7.93-18.27,19.07-25.47,26.72-7.95,1.45-11.3,6.21-10.19,14.18,0,0-.09.08-.09.08-7.44-.65-10.26,2.85-9.01,10.02,0,0-.24.35-.25.35-16.76.99-26.09,14.85-37.98,23.39-85.83,61.69-191.33,84.16-279.38,141.17-13.46-10.01-24.9-22.9-40.91-29.28-7.08-2.82-14.7-9.21-21.86-1.22-6.31,7.04-3.39,15.86.23,22.7,8.59,16.25,18.51,31.8,27.89,47.63-1.83,6.2,10.27,5.68,6.26,12.94-32.55-22.21-38.92-59.35-54.69-94.08,78.16-28.35,146.77-75.08,227.37-95.71,64.24-16.45,121.78-47.88,170.92-93.44,15.36-14.24,25.09-32.07,33.89-51.69-25,16.63-45.56,38.7-71.19,53.83-5.32-11.43,6.04-15.99,10.25-23.08,5.03-8.48,15.36-13.91,14.13-25.88,0,0,.05-.04.05-.04,14.12-6.6,21.38-18.32,24.66-33.01,0,0,.81-1.03.8-1.03,1.15-1.68,2.3-3.36,3.46-5.05ZM623.99,301.18c-7.05,22.06-13.14,44.48-21.33,66.11-21.7,57.32-61.01,104.03-94.16,154.49-11.99,18.25-27.48,32.1-46.55,41.18-30.86,14.7-57.55,35.08-83.88,56.3-13.52,10.9-23.47,24.07-28.75,41.41,44.45-26.39,96.23-34.17,139.92-60.53,19.1-11.52,34.38-26.11,38.37-50.16,3.45-20.83,11.19-40.52,24.66-57.27,22.6-28.12,38.42-60.44,50.51-93.6,11.41-31.29,23.54-63.28,21.21-97.93ZM212.82,400.9c-38.81,18.09-74.5,28.86-112.84,19.63-7.04-20.97,6.1-45.25-14.91-63.9-4.71,27.15-21.06,48.23-25.27,73.9-2.07,12.64.22,21.64,14.37,21.98,21.82.53,44.53,3.48,65.31-1.31,27.99-6.45,60.58-9.82,73.33-50.29ZM803.51,457.75c6.91,33.91-7.97,60.58-30.23,83.28-38.83,39.61-71.31,82.11-76.91,139.84-.44,4.54-3.33,9.07-5.85,13.13-36.42,58.63-123.3,96.92-192.09,85.34-12.5-2.1-19.42-5.83-22.04-20.37-4.07-22.6-22.5-34.53-42.13-43.85,74.72-23.16,138.44-61.61,180.33-130.19,3.06-5,7.14-6.2,12.25-5.52,16.37,2.16,21.88-7.8,27.66-21.09,11.36-26.11,24.08-53.66,56.24-58.64,35.28-5.47,66.33-18,92.76-41.94ZM735.22,533.98c-8.22-4.71-11.98-1.42-16.21,1.06-30.08,17.6-51.16,43.74-70.45,72.04-16.31,23.92-30.94,49.76-56.53,65.56-25.27,15.6-45.38,36.08-61.5,60.78-3.27,5.01-6.12,9.77,1.31,16.67,24.65-6.6,47.28-20.9,71.45-31.28,24.67-10.6,42.2-28.71,55.53-52.21,16.71-29.47,20.47-64.48,42.27-91.94,10.81-13.62,26.94-23.09,34.13-40.67ZM692.06,409.66c5.55-21.39,11.1-42.77,16.65-64.16.91.13,1.82.26,2.73.39,0,17.6,0,35.2,0,52.8-5.42,5.49-11.78,9.32-19.38,10.96ZM372.89,408.83c-25.21-4.23-46.45,4.91-66.07,19.54,22.73-4.12,44.95-9.98,66.07-19.54ZM730.9,749.73c-7.69-3.74-3.54,3.11-4.67,5.23,1.56-1.74,3.11-3.49,4.67-5.23Z"/>
  <path class="cls-1" d="M803.51,457.75c-26.43,23.94-57.48,36.47-92.76,41.94-32.16,4.98-44.88,32.53-56.24,58.64-5.78,13.3-11.29,23.26-27.66,21.09-5.1-.67-9.19.52-12.25,5.52-41.9,68.57-105.61,107.02-180.33,130.19-16.2.21-32.4.33-48.59.67-7.57.16-17.39-3.56-19.33,8.55-1.68,10.53,7.46,11.29,14.05,13.17,12.78,3.66,23.11,11.41,34.15,19.06,13.59-18.64,25.97-4.25,26.29,6.07,1.47,46.81,33.28,41.38,63.44,40.6,2.36-.06,4.74.61,7.33.98-20.37,21.53-65.78,19.56-84.02-6.42-17.34-24.7-39.66-39.72-67.33-48.85-13.43-4.43-22.31-12.79-22.78-29.66,32.87-16.52,62.97-40.11,104.78-33.36,27.93,4.51,52.68-9.66,74.5-24.97,28.42-19.94,56.2-41.09,80.26-66.61,20.03-21.25,28.48-45.03,17.84-73.31-10.39-27.62-4.42-52.03,11.67-75.72,21.7-31.96,51.18-59.12,62.17-97.79,17.64-62.09,16.84-121.41-27.46-173.83-2.39-2.83-3.73-6.56-8.12-14.48,21.45,10.64,39.87,15.81,38.56,41.4-.42,8.23,3.89,17.66,8.46,25.02,26.5,42.64,25.57,91.19,30.7,138.39,1.68,15.47-1.75,29.37-19.39,34.65,0-17.6,0-35.2,0-52.8-.91-.13-1.82-.26-2.73-.39-5.55,21.39-11.1,42.77-16.65,64.16-27.82,27.4-53.49,56.26-63.92,95.28-1.87,6.98-3.24,14.14-4.24,21.3-.73,5.24,1.42,9.86,6.73,11.54,5.66,1.79,9.73-1.77,11.51-6.45,19.47-51.32,63.69-65.07,111.33-73.37,15.53-2.71,28.18-11.89,42.17-17.65,5.39,5.06,8.67,10.35,7.88,17.45ZM250.22,627.93c11.68-13.6,21.68-25.8,34.57-35.97,46.54-36.7,101.66-59.44,149.49-93.78,31.18-22.39,63.61-43.83,83.13-78.69-16.76.99-26.09,14.85-37.98,23.39-85.83,61.69-191.33,84.16-279.38,141.17,14.63,16.86,31.11,31.47,50.16,43.89ZM613.44,826.79c40.01-20.46,78.32-43.34,113.01-72.03,0,0-.21.2-.21.2,1.13-2.12-3.02-8.97,4.67-5.23,15.35-35.92,19.9-73.38,16.9-112.05-5.38,8.58-10.05,17.43-11.15,26.7-3.64,30.77-18.36,54.48-42.34,73.35-28.19,22.19-60.41,36.61-93.5,49.43-7.44,2.88-18.51,4.37-14.64,15.01,6.66,18.33-2.46,33.03-7.35,48.92.81.77,1.6,1.55,2.37,2.36,4.67-.84,9.35-1.69,14.02-2.53.85-11.96,9.61-19.72,18.22-24.13ZM629.56,168.52c-32.07-16.66-68.94-21.95-106.81-7.55-34.09,12.96-62.84,35.51-96.67,48.23-23.8,9.75-39.78,26.91-48.74,51.54,15.53-5.3,29.57-12.5,42.62-21.2,35.01-23.35,70.64-44.97,111.28-57.85,36.63-11.61,69.56-8.62,100.18,15.94,12.44,9.98,26.55,17.89,39.9,26.74-7.34-23.65-23.37-46.3-41.75-55.84ZM453.31,337.42c-36.11,19.07-67.75,51.71-110.92,50.82-40.54-.84-59.52,21.77-79.84,55.54,17.55-6.11,30.91-10.76,44.27-15.41,19.62-14.63,40.86-23.76,66.07-19.54,38.15-11.54,73.3-28.98,105.07-53.1-5.32-11.43,6.04-15.99,10.25-23.08,5.03-8.48,15.36-13.91,14.13-25.88-16.3,10.29-32.03,21.67-49.03,30.64ZM500.12,110.35c-13.32-8.25-24.52-8.41-35.79-9.13-46.91-3.01-90.98,13.03-136.46,19.43-55.93,7.87-88.25,42.7-113.49,88.28,8.26.05,12.27-6.72,17.98-10.93,46.96-34.65,97.35-61.32,156.85-66.38,34.85-11.9,70.44-20.25,110.91-21.27ZM513.9,137.08c-27.23-3.27-48.39-1.14-69.39,3.72-46.47,10.77-91.49,24.73-127.15,58.86,9.31.94,16.7-3.38,24.67-7.61,40.99-21.75,84.5-33.82,131.33-31.72,15.49-1.28,24.22-13.11,40.54-23.26ZM182.65,357.15c-18.55,4.09-23.65-3.51-25.53-18.15-1.68-13.07-2.06-26.32-3.02-39.5-11.06,1.04-15.82,8.09-22.07,12.91-6.28,4.84-12.91,9.24-19.39,13.84,9.35.17,9.39,6.78,9.37,13.48-.03,12.89-.24,25.79.02,38.67.57,27.59,14.45,37.26,38.51,25.21,36.45-18.25,69.74-42.47,107.78-57.82-28.61,3.56-57.65,5.18-85.68,11.36ZM171.66,636.81c4.01-7.26-8.08-6.73-6.26-12.94,12.05-7.81-2.83-17.61,2.78-27.47,16.85,11.88,27.22,29.36,42.66,44.42-15.73,9.85-27.72,5.54-39.18-4.01ZM266.44,337.65c5.82-1.95,11.65-4.3,17.61.39-2.8,7.88-9.03,8.06-15.53,7.72-.69-2.7-1.39-5.4-2.08-8.1ZM311.53,203.57c-2.27,7.66-6.88,11.44-15.16,9.17,1.73-8.56,8.67-8.48,15.16-9.17ZM526.76,409.04c-1.12-7.97,2.23-12.72,10.19-14.18-.48,6.82-2.96,12.21-10.19,14.18ZM677.94,237.67c-5.72-2.58-6.4-7.63-6.39-13.02,6.58,2.16,6.16,7.75,6.39,13.02ZM517.66,419.14c-1.26-7.17,1.56-10.67,9.01-10.02-.88,5.24-3.89,8.58-9.01,10.02ZM581.2,853.45c-1.3.44-2.6.87-3.89,1.31.51-1.22,1.02-2.44,1.53-3.66.8.76,1.59,1.55,2.37,2.36ZM287.65,1807.09c2.06-39.65,10.66-50.51,54.3-62.35-27.07,18.16-38.43,42.04-54.5,62.17l.2.18ZM502.39,306.73c14.12-6.6,21.38-18.32,24.66-33.01-9.56,10-22.02,17.84-24.66,33.01ZM1218.93,1465.36c-2.59-9.18-9.74-12.9-22.37-18.96,6.97,12.04,11.35,18.78,20.32,21.34.63-.84,1.31-1.64,2.05-2.38ZM764.41,170.72c1.88,7.99,7.4,12.2,14.91,14.32.54-.63,1.05-1.28,1.55-1.97-2.13-8.03-7.73-12.01-15.56-13.4l-.9,1.05ZM765.31,169.68c-3.85-5.59-7.46-11.5-16.12-12.28,2.83,7.96,7.88,11.94,15.22,13.33,0,0,.9-1.05.9-1.05ZM789.92,189.06c-1.72-3.94-5.13-5.34-9.05-5.98-.5.69-1.01,1.34-1.55,1.96,1.56,3.94,4.7,5.41,8.7,5.52,0,0,1.9-1.5,1.9-1.51ZM795.52,197.84c.31-4.32-1.51-7.27-5.6-8.79,0,0-1.9,1.51-1.88,1.5.58,3.95,2.25,7.16,6.1,8.88l1.39-1.59ZM1198.21,628.61c1.5,2.71,4.52,5.41,6.4,2.59,2.25-3.37-2.39-3.7-4.64-4.74-.57.73-1.16,1.45-1.76,2.15ZM287.45,1806.92c-.34,1.49-.68,2.97-1.02,4.46.41-1.43.82-2.85,1.22-4.28,0,0-.2-.18-.2-.18ZM794.13,199.43c1.55,1.67,3.09,3.34,4.64,5.01.68-.63,1.37-1.25,2.06-1.85-1.78-1.57-3.55-3.16-5.31-4.75,0,0-1.39,1.59-1.38,1.59ZM311.54,203.6c1.87-1.27,3.74-2.55,5.61-3.82-3.02-.42-4.85.92-5.61,3.82ZM1223.05,1134.77c-.32-.53-.55-1.14-.99-1.54-.24-.22-.81-.07-1.24-.09.79.49,1.59.97,2.38,1.46,0,0-.16.18-.16.18ZM682.36,1436.96c.25-.56.51-1.12.76-1.68-.32.49-.65.98-.97,1.48,0,0,.21.21.21.21ZM604.68,848.11c-1.91.71-3.82,1.42-5.72,2.13,1.91-.71,3.81-1.42,5.72-2.13ZM140.92,208.53c-.63,1.04-1.26,2.08-1.89,3.12,1.12-.56,2.24-1.12,3.37-1.68,0,0-1.48-1.44-1.47-1.44ZM527.85,272.69c1.15-1.68,2.3-3.36,3.46-5.05-2.76.58-4.39,1.93-3.46,5.05Z"/>
  <path class="cls-3" d="M595.21,850.92c.85-11.96,9.61-19.72,18.22-24.13,40.01-20.46,78.32-43.34,113.01-72.03-6.56,27.24-27.74,42.43-48.65,57.12-22.39,15.73-46.78,28.11-73.11,36.23-1.91.71-3.82,1.42-5.72,2.13-1.18.59-2.43.82-3.74.68ZM602.66,367.29c-21.7,57.32-61.01,104.03-94.16,154.49-11.99,18.25-27.48,32.1-46.55,41.18-30.86,14.7-57.55,35.08-83.88,56.3-13.52,10.9-23.47,24.07-28.75,41.41,44.45-26.39,96.23-34.17,139.92-60.53,19.1-11.52,34.38-26.11,38.37-50.16,3.45-20.83,11.19-40.52,24.66-57.27,22.6-28.12,38.42-60.44,50.51-93.6,11.41-31.29,23.54-63.28,21.21-97.93-7.05,22.06-13.14,44.48-21.33,66.11ZM265.39,219.92c-4.3-5.6,1.24-15.24-8.89-19.51-12.13,7.83-22.02,18.18-26.72,32.57-6.25,19.16-11.69,38.58-17.64,57.84-2.47,7.98-10.62,15.36-1.22,24.15,8.32,7.78,17.57,7.1,27.25,4.04,9.21-2.91,19.28-4.53,27.34-9.41,44.6-26.97,75.92-67.26,105.46-110.08-52.13,16.14-74.32,81.49-136.9,85.73,3.32-17.3,6.42-31.99,13.49-45.73,4.02-7.82,2.09-20.79,16.95-18.73,0,0,.89-.87.88-.87ZM99.98,420.52c-7.04-20.97,6.1-45.25-14.91-63.9-4.71,27.15-21.06,48.23-25.27,73.9-2.07,12.64.22,21.64,14.37,21.98,21.82.53,44.53,3.48,65.31-1.31,27.99-6.45,60.58-9.82,73.33-50.29-38.81,18.09-74.5,28.86-112.84,19.63ZM719.01,535.03c-30.08,17.6-51.16,43.74-70.45,72.04-16.31,23.92-30.94,49.76-56.53,65.56-25.27,15.6-45.38,36.08-61.5,60.78-3.27,5.01-6.12,9.77,1.31,16.67,24.65-6.6,47.28-20.9,71.45-31.28,24.67-10.6,42.2-28.71,55.53-52.21,16.71-29.47,20.47-64.48,42.27-91.94,10.81-13.62,26.94-23.09,34.13-40.67-8.22-4.71-11.98-1.42-16.21,1.06Z"/>
  <path class="cls-5" d="M1545.07,905.28c55.49,15.46,80.93,55.61,64.76,108.3-23.68,77.19-53.58,151.63-115.65,207.63-6.98,6.3-8.35,12.88-8.21,21.39,2.68,167.26-10.78,334.1-13.18,501.25-3.26,226.41-15.63,452.61-17.04,679.09-.34,53.71,2.5,107.3,12.1,160.04,15.88,87.3-22.34,152.39-81.93,209.36-12.28,11.74-26.55,21.38-36,35.93-4.01,6.18-7.86,12.93-17.07,10.28-10.37-2.98-9.81-11.54-9.6-19.76,3.47-131.39,7.04-262.77,10.4-394.16,3.75-146.84,7.36-293.69,15.68-440.36,1.82-32.03,3.57-64.07,5.36-96.1.05-.81.46-1.94.08-2.39-30.67-36.39-13.95-87.66-40.9-127.34-10.7,4.81-20.31,13.73-33.08,15.82-7.66,1.26-9.07,8.63-8.47,15.5,2.06,23.9-9.53,40.88-28.62,52.58-28.99,17.77-50.84,42.25-71.35,68.79-20.17,26.1-48.08,43.42-75.8,60.35-42.15,25.75-84.74,50.77-127.76,76.47,1.49,16.75,11.02,28.89,18.73,41.95,4.7,7.98,12.69,17.18.19,25.09-10.55,6.67-16.19-1.5-21.73-8.83-2.93-3.88-5.85-7.82-9.25-11.28-41.92-42.66-43.83-59.89-9.83-109.02,12.76-18.44,21.6-37.7,23.62-60.25,1.77-19.66,7.4-38.46,20.32-53.85,15.65-18.63,17.4-39.97,10.29-61.22-7.29-21.78-1.72-37.67,14.44-52.07,18.75-16.71,36.24-34.58,48.78-57.43-34.57-23.38,5.92-36.57,4.41-59.02-19.05-7.7-12.42-21.18-1.18-35.41,5.01-6.34,9.67-13.1,13.51-20.21,9.28-17.15,29.66-27.95,21.72-54.96-3.49-11.85,11.27-29.07,17.74-43.85,1.89-2.15,3.91-4.52.43-6.76-3.26-2.09-5.05.76-6.94,2.77-4.45,3.42-8.9,6.82-13.34,10.25-18.8,14.52-38.42,9.2-46.02-13.31-3.07-9.1-4.37-19.01-5.07-28.65-2.71-37.41-23.76-58.62-61.8-58.38-34.16.21-68,5.48-100.66,15.72-17.77,5.57-34.57,7.58-51.98-.44-20.05-9.25-38.35-1.25-55.45,8.11-83.63,45.77-160.07,101.59-230.17,166.2-50.69,46.72-103.04,91.72-140.82,150.62-9.67,15.08-25.15,25.03-39.42,35.84-33.39,25.29-60.51,56.06-80.09,93.37-5.8,11.06-9.19,23.92-21.94,34.03,0-32.79-2.31-63.18.61-93.06,3.33-34-3.23-68.25,4.2-101.87,2.44-11.03,4.39-22.68,9.51-32.5,13.13-25.2,25.24-49.5,21.5-79.96-1.84-14.99,12.19-27.6,20.38-43.08-12.43-3.89-12.15-11.84-7.98-22.27,22.33-55.84,58.62-98.72,114.29-123.25,15.96-7.03,30.54-13.56,37.03-31.9,5.08-14.37,19.01-19.48,32.6-22.85,21.69-5.37,40.95-15.08,58.16-29.25,28.31-23.3,59.14-33.19,94.82-17.53,4.19,1.84,9.22,1.76,21.84,3.97-27.47-32.61-18.81-74.08-48.85-100.46-13.93-12.23-5.34-26.8,4.89-40.34-24.61-18.52-25.54-43.57-16.95-69.66,35.99-109.3,92.5-199.97,216.41-223.08,63.7-11.88,126.32-7.78,182,31.3,7.38,5.18,14.74,5.84,22.91,3.02,15.21-5.25,30.44-10.43,46.94-16.07-3.23-9.87-11.73-18.33-9.98-30.5,1.33-9.3-5.56-14.48-13.89-17.47-17.25-6.2-22.62-18.44-20.21-36.27,6.9-50.99-8.9-95.63-39.47-135.98-25.39-33.51-20.92-51.73,17.61-69.49,29.56-13.63,60.01-24.18,101.51-14.3-78.08-110.61-164.47-204.89-248.41-307.53-.54,57.69-1.29,109.6,16.04,160.4,21.23,62.25,14.59,120.13-34.25,168.59-6.51,6.46-12.56,15.12-27.98,13.86,1.38-36.46,15.42-72.7,3.74-112.57-13.9,27.88-28.99,52.23-47.01,74.53-5.03,6.23-2.01,12.13-1.8,18.39,2.15,63.58-9.8,124.26-37.93,181.53-25.31,51.52-69.27,77.92-123.14,90.02-24.49,5.5-49.48,8.78-74.23,13.17-7.23,1.28-14.59,3.65-20.66-8.04,17.78-16.05,34.6-34.78,32.84-65.8-13.58,11.41-21.16,26.94-37.96,31.82-41.54,12.06-78.49.53-104.63-35.65-11.56-16-24.69-26.52-45.52-28.14-41.58-3.23-54.24-16.85-58.93-59.35-48.89-14.79-59.05-24.5-62.29-63.02-43.16,16.89-81.85,13.71-113.89-23.93-28.41-33.38-47.54-69.41-45.37-114.91-22.9-3.93-44.91-9.03-65.37-19.42-19.26-9.78-26.38-23.45-14.77-43.41,17.76-30.52,31.43-61.63,28.76-98.68-1.43-19.92,13.76-31.92,30.97-39.75,36.55-16.63,69.43-38.51,97.91-66.94,8.07-8.06,16.01-16.06,17.51-31.53-29.85,5.34-56.32,21.79-91.19,19.82,46.95-34.24,73.24-81.15,104.57-123.94,22.34-30.52,51.68-51.17,86.37-64.85C339.6,25.48,400.49,8.84,463.58.95c48.85-6.1,87.02,17.96,119.75,48.99,19.02,18.04,33.78,16,52.79,4.77,40.29-23.8,92.65-22.55,123.42,13.19,81.31,94.46,184.7,165.62,265.95,260.2,71.67,83.42,132.15,174.46,195.02,264.05,19.56,27.87,40.84,54.53,61.32,81.75,10.31,13.7,23.24,21.36,41.15,21.93,54.73,1.74,107.32,16.14,159.79,29.94,68.72,18.07,103.36,103.49,67.52,164.1-2.95,4.98-6.41,9.32-5.11,15.5-9.09,2.1-16.88,5.56-17.74,16.38,52.85,43.84,53.78,48.49,24.05,112.74-10.2,22.05-21.18,43.85-29.78,66.53-14.38,37.9-36.73,66.48-74.34,85.46-46.78,23.61-65.76,74.41-55.47,126.12,18.32,92.07,16.81,185.1,13.72,278.5-1.73,52.19-15.64,103.9-6.4,156.49,5.4,30.73,5.24,30.76-4.7,62.43-9.45-49.79-26.3-92.78-71.09-127.19,4.78,20.6-3.44,37.68,8.27,50.07,31.96,33.83,40.64,76.19,47.27,119.69,2.72,17.86,6.16,35.77-19.52,40.9,10.97,16.71,14.75,32.68,15.7,50.08,3.99,72.96,2.04,145.82.27,218.83-3.82,157.34-4.92,314.75-6.94,472.14-.05,4-3.05,9.98,4.55,12.03,10.75-12.89,18.86-28.66,35.14-36.01,12.75-5.76,14.23-14.72,12.25-27.79-6.95-45.61-11.79-91.48-12.25-137.71-1.02-104.64,7.06-209.02,9.02-313.57,1.15-61.57,7.07-123.01,8.02-184.45,2.45-158.93,12.99-317.41,21.46-476.02,2.81-52.54,6.02-105.06,8.67-157.61.72-14.28.11-28.63.11-42.95-14.39,20.68-14.23,43.58-17.08,65.84-.92,7.21-.52,15.92-9.78,17.34-10.49,1.61-10.03-7.89-12.31-14.55-16.7-48.72-14.17-106.66,56.95-142.13,27.19-13.56,45.92-35.62,60.6-61.37,24.58-43.12,42.8-88.81,56.54-136.57,6.55-22.77,4.34-39.69-14.9-55.91-12.02-10.13-30.06-17.54-30.4-37.84ZM794.14,199.43c1.55,1.67,3.09,3.34,4.64,5.01,8.34,14.65,21.16,28.06,19.47,46.2-4.64,50.08,7.38,100.04.44,150.04-.99,7.11,1.33,12.22,6.17,17.36,21.21,22.57,27.78,50.38,28.45,80.43.56,25.15-1.55,50.06-9.01,78.79,29.35-25.83,40.49-69.87,22.5-111.12-25.42-58.32-33.58-117.7-27.83-180.07.59-6.4.35-13.09-.83-19.4-4.83-25.69-12.35-50.02-37.31-64.08-1.77-1.59-3.53-3.17-5.3-4.76.31-4.32-1.51-7.27-5.6-8.79-1.72-3.94-5.13-5.34-9.03-6-2.14-8.01-7.74-11.99-15.57-13.38-3.85-5.59-7.46-11.51-16.12-12.28,2.83,7.96,7.88,11.94,15.22,13.33,1.88,7.99,7.4,12.2,14.92,14.32,1.56,3.95,4.7,5.42,8.73,5.5.56,3.97,2.24,7.17,6.08,8.89ZM526.67,409.12l.09-.08c7.23-1.97,9.7-7.36,10.19-14.17,7.2-7.65,10.73-18.8,25.47-26.72-14.9,38.87-31.01,71.08-56.62,97.83-49.7,51.91-106.5,94.73-168.62,130.65-16.85,9.74-34.07,19.15-48.13,32.73-8.5,8.21-17.58,16.95-13.12,31.58,4.64,15.23,15.73,22.16,29.84,25.26,19.96,4.4,38.78.35,55.99-10.34,16.34-10.15,33.77-16.58,53.04-13.92,41.69,5.75,74-11.18,102.22-39.78,13.66-13.84,27.75-27.3,42.27-40.24,20.86-18.6,30.95-40.73,26.92-69.09-4.64-32.7,7.71-60.47,27.04-85.77,9.84-12.88,21.18-24.77,29.82-38.4,29.22-46.09,51.25-94.2,34.87-150.97-.23-5.27.18-10.87-6.4-13.02l-.23-.29c-7.34-23.65-23.37-46.3-41.75-55.84-32.07-16.66-68.94-21.95-106.81-7.55-34.09,12.96-62.84,35.51-96.69,48.23,9.69-22.17,35.23-28.99,47.3-48.86,15.49-1.28,24.22-13.11,40.54-23.26-27.23-3.27-48.39-1.14-69.39,3.72-46.47,10.77-91.49,24.73-127.15,58.86l-.21.12c-3.02-.42-4.85.92-5.61,3.82v-.04c-6.49.69-13.44.61-15.17,9.17-9.89,7.25-19.78,14.51-29.23,21.44-5.87-5.74-2.4-9.64-2.63-13.37l.89-.87c36.8-35.7,76.36-67.55,123.82-88.31,34.85-11.9,70.44-20.25,110.91-21.27-13.32-8.25-24.52-8.41-35.79-9.13-46.91-3.01-90.98,13.03-136.46,19.43-55.93,7.87-88.25,42.7-113.49,88.28-25.93,38.93-40.55,80.89-38.07,130.05,32.48-5.32,61.31-6.68,90.12-1.33.69,2.7,1.39,5.4,2.08,8.1l-.19.03c-28.61,3.56-57.65,5.18-85.68,11.36-18.55,4.09-23.65-3.51-25.53-18.15-1.68-13.07-2.06-26.32-3.02-39.5-11.06,1.04-15.82,8.09-22.07,12.91-6.28,4.84-12.91,9.24-19.38,13.84-40.41,12.77-60.96,37.97-61.13,82.71-.07,19.31-13.9,38.56-21.71,58.43,20.06,10.37,38.93,17.49,59.25,19.57,80.4,8.24,138.47-28.99,183.37-91.64,10.52-14.69,19.92-31.76,39.14-33.76,58.27-6.06,105.43-39.64,157.39-61.2,34.26-14.22,52.61-43.16,66.1-76.14,3.28-8.02,2.43-19.02,13.2-24.23,2.72,26.37.25,35.92-16.93,67.68-2.76.58-4.39,1.93-3.45,5.04l-.81,1.03c-9.56,10-22.02,17.84-24.66,33.01l-.05.04c-16.3,10.29-32.03,21.67-49.03,30.64-36.11,19.07-67.75,51.71-110.92,50.82-40.54-.84-59.52,21.77-79.84,55.54,17.55-6.11,30.91-10.76,44.27-15.41,22.73-4.12,44.95-9.98,66.08-19.54,38.13-11.54,73.29-28.97,105.06-53.1,25.63-15.13,46.19-37.2,71.19-53.83-8.8,19.62-18.53,37.45-33.89,51.69-49.15,45.56-106.68,76.99-170.92,93.44-80.6,20.64-149.21,67.36-227.37,95.71,15.77,34.73,22.14,71.86,54.69,94.08,11.46,9.55,23.45,13.86,39.18,4.01-15.44-15.06-25.8-32.54-42.66-44.42-5.61,9.86,9.27,19.66-2.78,27.47-9.38-15.83-19.29-31.38-27.89-47.63-3.62-6.84-6.53-15.66-.23-22.7,7.16-7.99,14.78-1.59,21.86,1.22,16.01,6.37,27.45,19.27,40.91,29.28,14.63,16.86,31.11,31.47,50.16,43.89,11.68-13.6,21.68-25.8,34.57-35.97,46.54-36.7,101.66-59.44,149.49-93.78,31.18-22.39,63.61-43.83,83.13-78.69l.24-.35c5.12-1.44,8.12-4.77,9.01-10.01ZM287.45,1806.92c16.08-20.13,27.43-44.01,54.5-62.17-43.65,11.83-52.24,22.7-54.3,62.35-.41,1.43-.82,2.85-1.22,4.28.34-1.49.68-2.97,1.02-4.46ZM726.23,754.96c1.56-1.74,3.11-3.49,4.67-5.23,15.35-35.92,19.9-73.38,16.9-112.05-5.38,8.58-10.05,17.43-11.15,26.7-3.64,30.77-18.36,54.48-42.34,73.35-28.19,22.19-60.41,36.61-93.5,49.43-7.44,2.88-18.51,4.37-14.64,15.01,6.66,18.33-2.46,33.03-7.34,48.93-.51,1.22-1.02,2.44-1.53,3.65,1.3-.44,2.6-.87,3.89-1.31,4.67-.84,9.35-1.69,14.02-2.53,1.31.14,2.56-.09,3.74-.68,1.91-.71,3.81-1.42,5.72-2.13,26.33-8.12,50.73-20.5,73.12-36.23,20.91-14.69,42.09-29.89,48.65-57.12l-.21.2ZM1218.93,1465.36c-2.58-9.18-9.74-12.91-22.37-18.96,6.97,12.04,11.35,18.78,20.32,21.34,34.87,52.68,72.2,103.98,91.31,168.61,11.58-28.88,11.14-52.33-1.26-75.99-20.72-39.53-53.05-68.53-88-95ZM1121.11,827.32c53.76,30.97,109.2,54.34,173.36,38.6-.73-36.45-29.36-54.25-61.86-38.47-54.77,26.6-58.22,25.95-101.5-18.96-.56-.58-.98-1.35-1.62-1.8-18.07-12.69-28.33-34.28-51.34-46.82,0,16.12.91,28.97-.2,41.64-2.03,23.34,12.8,41.19,21.72,59.79,5.8,12.1,26.99,3.09,41.16,4.8,4.28.52,8.67.08,15.5.08-13.34-14.36-32.88-18.22-36.4-37.43l1.17-1.44ZM1477.51,1124.25c-.04,2.67-.57,7.55-.04,7.67,5.25,1.18,7.41-2.52,8.88-6.8,23.84-32.32,36.59-70.18,51.77-106.61,14.48-34.74,6.95-43.33-24.99-64.1-24.47-15.91-40.03-.95-58.71,5.78,21.65,53.26,27.38,107.95,23.08,164.06ZM682.36,1436.96c-5.61.6-11.38.55-16.81,1.89-85.16,21.09-153.1,65.81-201.3,140.86-22.1,34.41-45.71,69.34-79.73,93.49-20.56,14.6-21.29,33.29-22.53,54.63,21.36.07,34.62-10.73,45.68-25.51,9.2-12.29,17.81-25.11,27.86-36.66,74.06-85.05,156.74-160.85,246.6-228.91.32-.49.65-.98.97-1.48-.25.56-.51,1.12-.76,1.68ZM142.39,209.97c6.05.5,11.17-2.01,15.69-5.51,22.22-17.22,45.91-32.63,63.16-55.69,18.49-24.71,42.74-42.6,72.6-50.25,63.82-16.35,128.6-23.35,194.68-17.56,26.83,2.35,55.1,9.37,81.92-12.18-34.48-21.32-66.3-44.92-109.47-37.4-31.84,5.55-64.01,9.77-95.4,17.25-52.7,12.55-106.52,24.14-147.28,63.87-29.55,28.81-52.93,62.93-77.38,96.03-.63,1.04-1.26,2.08-1.9,3.12,1.12-.56,2.24-1.12,3.37-1.68ZM1126.28,1588.6c-.65-.76-1.29-1.53-1.91-2.31,15.15-13.17,31.03-25.6,45.29-39.66,27.23-26.84,31.5-49.45,13.67-83.13-7.6-14.35-.04-17.83,11.32-21.25-3.37-4.44-4.95-7.34-7.27-9.44-7.45-6.76-13.12-18.67-26.04-12.88-14.29,6.4-9.26,17.85-6.74,29.25,4.48,20.29-3.18,38.52-13.21,55.51-7.44,12.6-21.4,22.42-7.65,40.07,4.95,6.35-4.97,12.37-9.94,17.46-16.39,16.77-33.2,33.23-41.31,54.79,1.94,9.64,18.45,12.66,12.67,19.92-18.61,23.35-11.46,48.13-10.11,73.5.43,8.15-7.98,17.35-13.68,25.07-5.74,7.78-12.33,15.43-19.99,21.21-27.11,20.47-26.82,45.05-12.55,72.35,54.63-16.34,117.99-96.32,127.22-160.58q-25,13.64-37.6,13.48c54.32-44.43,70.08-76.1,66.87-136.12-20.64,19.13-39.25,40.31-69.04,42.76ZM692.06,409.66c7.6-1.64,13.96-5.47,19.39-10.96,17.64-5.28,21.07-19.18,19.39-34.65-5.13-47.2-4.21-95.75-30.7-138.39-4.58-7.37-8.88-16.79-8.46-25.02,1.31-25.59-17.11-30.76-38.56-41.4,4.38,7.93,5.72,11.65,8.12,14.48,44.3,52.42,45.1,111.74,27.46,173.83-10.99,38.66-40.47,65.83-62.17,97.79-16.09,23.69-22.07,48.11-11.67,75.72,10.65,28.29,2.19,52.06-17.84,73.31-24.05,25.52-51.84,46.67-80.26,66.61-21.82,15.31-46.57,29.48-74.5,24.97-41.81-6.75-71.91,16.84-104.78,33.36.47,16.86,9.35,25.23,22.78,29.66,27.67,9.13,49.99,24.14,67.33,48.85,18.24,25.98,63.65,27.95,84.02,6.42-2.59-.36-4.97-1.04-7.33-.98-30.16.78-61.96,6.21-63.44-40.6-.32-10.32-12.7-24.71-26.29-6.07-11.04-7.65-21.37-15.39-34.15-19.06-6.59-1.89-15.73-2.64-14.05-13.17,1.93-12.11,11.76-8.39,19.33-8.55,16.2-.35,32.39-.46,48.59-.67,19.63,9.32,38.06,21.24,42.13,43.85,2.62,14.54,9.54,18.26,22.04,20.37,68.79,11.58,155.67-26.71,192.09-85.34,2.52-4.06,5.41-8.6,5.85-13.13,5.59-57.73,38.08-100.23,76.91-139.84,22.25-22.71,37.14-49.37,30.23-83.28.79-7.09-2.49-12.38-7.88-17.45-13.99,5.76-26.64,14.94-42.17,17.65-47.63,8.31-91.85,22.05-111.33,73.37-1.78,4.68-5.85,8.24-11.51,6.45-5.31-1.68-7.46-6.3-6.73-11.54,1-7.16,2.37-14.32,4.24-21.3,10.44-39.02,36.1-67.89,63.92-95.28ZM1198.22,628.6c1.49,2.71,4.51,5.41,6.39,2.59,2.25-3.37-2.39-3.7-4.64-4.74-12.77-27.38-33.32-49.6-49.7-74.6-68.97-105.21-139.26-209.38-230.23-297.76-54.6-53.05-117.72-96.85-166.25-156.59-19.83-24.41-48.85-23.92-78.38-18.04,2.72,14.47,14.68,15.77,23.48,20.17,17.08,8.54,33.42,20.5,27.4,40.5-10.54,35.02,5.21,60.97,21.73,88.16,4.07,6.7,5.85,15.07,7.5,22.93,8.27,39.33,2.36,79.37,5.48,118.94,2.1,26.63-9.89,42.84-33.46,53.02-16.7,7.21-34.8,12.52-50.58,31.5,23.14-5.92,41.64-11.13,60.36-15.34,54.39-12.24,67.27-31.8,55.7-86.57-4.02-19.03-11.9-38.37-6.89-57.45,9.68-36.85-.28-66.76-25.55-93.5-5.5-5.81-9.1-13.4-13.68-20.1-8.74-12.81-11.82-25.89-1.39-40.82,45.9,14.42,80.62,43.84,105.08,84.48,7.27,12.08,14.12,23.63,25.16,31.77,16.44,12.12,30.65,26.51,45.01,40.8,90.08,89.62,165.8,190.83,236.3,296.01,11.05,16.48,22.65,28.74,41.17,34.62ZM1014.48,1067.54c-.92-1.09-1.84-2.18-2.74-3.29,7.01-6.22,14.01-12.44,21.85-19.4-7.08-6.38-12.32-11.08-19.79-17.81-10.13,22.35-23.76,42.01-27.65,63.44-5.93,32.69-6.63,66.36,27.78,88.83,17.48,11.42,32.18,27.04,48.38,40.47,19.91,16.5,38.91,34.57,67.92,33.29,6.95-.31,17.28,3.47,17.31,10.85.08,23.24,18.42,24.66,33.07,31.29,13.63,6.17,23.54,16.71,32.11,28.82,13.83,19.53,18.32,42.24,22.34,68.51,24.85-24.82,49.3-45.58,74.7-65.25,4.17-3.23,7.32-8.96,8.88-14.15,3.9-12.97,10.9-23.1,21.9-31.05,14.22-10.29,17.25-24.82,6.93-38.18-34.26-44.38-72.81-84.33-124.41-109.14-.32-.53-.55-1.14-.99-1.54-.24-.22-.81-.07-1.24-.09.79.49,1.59.97,2.38,1.46,1.89,17.07,9.65,30.53,25.26,38.27,43.89,21.77,68.59,63.43,64.61,112.63-6.58-40.12-24.23-72.04-61.08-89.2-7.17,43.68,27.82,79.94,18.72,123.2-5.43-13.61.28-30.71-15.53-40.85-11.65,20.16-3.52,44.74-15.32,68.38-8.6-55.85,11.03-110.48-16.35-160.29-17.33,4.78-28.35,14.64-38.63,24.82-9.75,9.65-16.03,22.04-20.45,35.19-4.88-39.52,26.49-56.42,50.15-78.27-15.46-32.3-42.52-51.95-68.02-72.96-2.17-1.79-5.94-2.65-8.83-2.41-21.59,1.82-54.59,30.84-61.87,53.37-2.24,6.93-1.53,15.86-12.41,22.18-7.16-50.7,28.3-67.75,64.53-87.94-38.88-19.32-73.31-39.21-113.53-13.18ZM736,1013.03l-.21-.18c32.5-63.72,85.65-85.83,154.69-81.2,26.88,1.8,45.71-8.89,69.96-18.48-22.69-10.98-43.72-16.11-65.72-17.39-156.56-9.1-230.52,92.02-258.62,224.06-2.34,11.01-1.9,22.42,13.96,26.19,14.03,3.33,8.08,13.01,3.86,21.02-4.56,8.66-10.87,17.59-2.04,26.66,15.09,15.49,18.44,35.65,23.48,55.22q13.96,54.19,68.53,46.46c22.7-3.22,54.15-25.25,54.58-41.34.57-21.56,8.69-33.65,30.67-35.8,9.63-.94,15.78-7.27,12.68-16.69-9.4-28.62,8.1-38.32,30.21-44.92,22.98-6.86,39.08-19.35,40.2-45.41.48-11.14,6.62-15.79,17.53-15.16,14.61.84,25.47-6.43,31.89-18.47,25.2-47.25,41.64-98.64,72.44-147.51-23.41,4.87-42.34,8.2-60.06,16.03-1.11,34.64-3.26,68.36-30.43,93.81.92-28.2,22.79-54.81,3.64-83.89-12.05.63-22.09,6.1-32.35,10.75q-48.7,22.08-39.51,73.31c4.14,23.08-7.72,52.49-30.33,65.89,19.29-35.44,16.01-66.6-2.62-100.55-35.87,30.14-63.69,64.31-89.5,100.53,24.5-59.08,64.71-106.15,117.55-148.26-43.07-2.02-69.51,7.87-96.13,27.6-12.6,9.34-21.34,24.46-38.32,27.72ZM833.16,1328.34c-36.95-6.35-72.17-6.16-107.39-.93-30.06,4.46-60.3,6.56-88.85-4.81-24.24-9.66-44.31-5.24-62.9,10.77-20.78,17.89-44.15,29.93-71.21,34.76-10.89,1.95-20.53,6.4-24.45,17.57-5.12,14.6-16.43,21.17-29.92,26-36.38,13.01-63.61,37.39-86.47,68.08-16.25,21.82-18.34,48.49-28.34,71.75-19.59,45.54-14.66,96.12-35.48,140.97-5.46,11.77-8.71,27.82-4.03,44.88,20.65-11.6,44.34-16.82,44.52-48.09.08-14.33,9.78-25.7,22.97-34.93,15.45-10.81,34.29-17.95,46.78-34.97-14.34-6.55-26.41,1.69-40.89-1.35,69.03-7.8,96.46-61.65,132.41-111.34-40.09-7.58-74.63-27.11-113.36-5.31,1.05-10.92,6.14-12.97,10.12-15.11,21.67-11.65,44.07-7.93,66.08-1.42,30.23,8.95,57.94,10.55,82.93-14.56,10.52-10.57,26.03-16.15,39.2-24.11,28-16.94,59.69-25.88,92.86-39.06-51.09-27.35-103.9-14.71-153.24-24.46,48.3-9.85,96.47-15.18,144.54-2.99,18.61,4.72,36.09,13.8,52.04-6.22,4.85-6.08,14.93-5.04,23.17-4.95,32.7.34,54.51-29.83,86.68-31.27.45-.02.76-2.9,2.23-8.89ZM1202.03,1631.28c-8.89,26.1-15.65,48.6-24.32,70.35-4.93,12.37-6.13,23.19-4.35,36.96,4.59,35.57,5.92,71.86-17.74,105.89-4.18-30.55,10.89-59.18-2.77-86.8-14.1,18.22-25.17,38.1-41.36,51.98-18.44,15.81-26.18,32.35-26.18,56.38,0,21.56-4.52,43.71-26.04,57.21,4.51-25.18,13.21-49.53,6.03-77.37-33.07,19.29-59.15,40.64-63.2,79.71-3.18,30.66-14.73,57.76-34.57,81.44-2.65,3.17-7.9,6.67-3.16,12.9,19.79-5.75,35.19-19.4,52.46-29.46,60.93-35.51,122.79-69.86,164.02-130.47,8.11-11.92,19.62-21.81,32.93-28.37,21.95-10.83,32.5-28.71,32.74-52.53.18-18.56,9.84-28.75,26.66-32.66,18.59-4.33,23.87-16.42,23.94-33.99.19-48.93-12.27-94.31-36.13-136.78-14.44-25.7-27.11-52.59-50.98-77.84-6.16,47.99-15.52,90.69,11.86,132.01,17.73,26.76,30.42,56.58,32.41,95.53-15.86-35.3-23.47-69.31-52.24-94.09ZM1376.3,1196.48c-7.6-43.21-15.48-80.49-20.34-118.16-3.63-28.15-17.54-47.31-39.83-63.51-63.55-46.17-135.22-64.33-212.55-66.09-51.29-1.17-65.14,8.15-78.53,57.91,16.62,8.14,32.23,18.44,51.02,21.98,38.09,7.18,69.19,26.96,95.23,55.01,6.83,7.36,13.76,12.89,24.04,14.86,37.74,7.25,69.04,27.21,98.04,51.34,23.26,19.35,50.42,31.51,82.92,46.66ZM794.39,1292.35c64.98,17.65,129.75,22.66,186.26,55.91,4.39,2.58,10.54,7.16,15.72,2.65,16.55-14.43,38.94-14.79,57.32-24.77,10.67-5.79,19.83-11.95,17.77-25.72-2.03-13.54,2.98-23.44,12.95-28.99-41.78-51.95-120.57-71.71-124.16-153.33-16.71-.31-27.2,3.24-32.63,21.05-6.02,19.76-20.55,34.44-41.94,40.63-11.9,3.45-22.97,8.88-25.11,23.3-2.77,18.64-12.06,31-31.4,35.39-8.88,2.01-12.85,9.85-12.86,18.62-.02,15.06-6.93,26.09-21.91,35.25ZM1406.18,1180.17c25.6-13.49,37.53-29.49,37.86-59.58.37-33.41-3.74-65.9-5.94-98.82-1.59-23.8-6.36-45.71-27.26-64.59,24.29-12.85,46.55-23.6,67.81-36.07,51.06-29.94,62.93-86.56,27.52-133.02-17.47-22.92-38.17-42.08-70.01-42.57-32.22-.5-58.44,9.05-72.89,40.41-1.31,2.85-3.54,5.81-6.15,7.45-34.29,21.48-37.68,52.02-25.89,87.09.49,1.44,1.63,2.67,3.98,6.39,56.28-25.6,109.1-53.63,117.77-125.49,13.62,81.18-49.15,113.23-98.07,153.42,17.68,26.59,77.33,27.51,46.15,78.35,13.12,35.16,38.48,65.61,30.06,111.96-24.77-30.77-31.7-64.76-53.45-89.73,21.4,52.74,14.34,110.03,28.52,164.8ZM1380.19,734c-61.76-11.87-122.51-26.09-186.22,3.97,10.08-20.98,27.59-25.89,37.46-39.6-36.09-25.97-75.11-16.64-118.32-9.97,25.28-26.02,56.42-17.02,87.25-25.08-26.95-11.79-50.52-19.08-70.85-31.63-42.04-25.94-80.07-12.88-117.73,5.26-3.28,6.97-.57,11.8,2.26,15.21,47.48,57.36,95.26,114.5,154.75,160.24,7.38,5.67,15.56,7.27,25.04,3.09,62.03-27.38,124.22-54.37,186.36-81.49ZM1364.79,1680.22c18.01-131.19,4.56-261.56,3.83-396.02-10.68,8.84-22.12,13.55-24.58,21.16-11.03,34.11-41.22,51.19-62.91,75.76-15.36,17.4-29.71,35.68-45.05,54.22,17.3,16.18,32.81,30.34,47.93,44.9,44.21,42.59,73.54,91.79,60.28,155.79-4.41,21.31.88,33.73,20.49,44.18ZM1081.92,929.66c106.71-9.92,206.76,3.15,292.09,83.78-17.24-84.65-225.37-143.22-292.09-83.78ZM1133,1439.64c-13.05-37.86-28.2-70.45-54.22-97.25q-41.04,16.39-46.45,28.75c13.05,10.52,27.64,19.24,38.36,32.84,10.83,13.75,9.9,31.21,15.21,48.77,14.16-9.05,27.71-13.16,47.1-13.11ZM931.09,1358.61c-13.78-4.27-27.76-12.66-41.31-12.01-34.6,1.67-65.94,18.21-98.21,29.26-11.07,3.79-20.34,13.7-34.29,13.5-10.69-.15-22.22,1.27-24.33,16.18,10.98,3.63,18.98-.57,27.06-4.05,28.9-12.47,57.28-28.22,90.08-11.55,2.96,1.5,8.71.97,11.39-1.01,20.75-15.33,46.18-18.14,69.61-30.32ZM641.02,146.1c16.85-4.07,30.16-3.75,43,2.57,7.12,3.51,14.47,3.35,19.39-3.78,4.55-6.59,2.91-13.28-.56-20.4-12.62-25.85-74.7-44.87-101.17-29.94,17.37,13.27,35.38,25.85,39.34,51.55ZM1115.27,1310.26c27.93,11.04,43.96,36.09,64.15,56.38,7.4-3.81,14.39-7.41,20.27-10.43-2.17-50.04-54.6-39.9-76.51-63.87-22.64,4.86-28.69,23.39-33.72,42.98,10.94,3.81,21.86,7.6,33.85,11.77-2.16-13.29-21.93-19.98-8.03-36.83ZM1386.66,2737.8c19.98-23.53,33.73-50.7,47.61-77.78,3.98-7.77,5.39-16.35-2.98-21.62-10.64-6.69-13.68,4.48-18.21,10.1-20.83,25.84-21.3,58.14-26.42,89.29ZM1311,810.57c17.49-14.3,38.45-25.3,54.08-52.17-26.29,12.87-46.75,22.88-67.01,32.81,1.14,9.34,4.63,14.99,12.93,19.36ZM1112.79,579.98c-.67.65-1.21,1.18-1.76,1.71,1.07.54,2.1,1.26,3.23,1.52.39.09,1.04-.98,1.58-1.52-1.04-.58-2.09-1.17-3.05-1.71ZM1477.47,1131.92c5.25,1.18,7.41-2.52,8.88-6.8-2.95-.29-5.9-.58-8.84-.87-.04,2.67-.57,7.55-.04,7.67ZM735.79,1012.85c-3.3,1.65-6.5,3.39-6.82,8.84,5.86-.49,7.86-3.28,7.03-8.66,0,0-.21-.18-.21-.18ZM1011.76,1064.27c-2.17,1.45-6.97,2.08-4.5,5.57,2.05,2.89,5.26.16,7.22-2.3-.92-1.09-1.84-2.18-2.72-3.27ZM1051.82,1929.54c-2.15.5-2.27,1.75-.4,2.93.52.32,1.55.53,1.92.25.83-.65,1.39-1.64,2.21-2.68-1.41-.21-2.66-.74-3.73-.49ZM1124.38,1586.31c-1.89,1.24-3.8,2.47-5.71,3.69,3.26,3.46,5.53,1.61,7.6-1.4-.65-.76-1.29-1.53-1.89-2.29ZM1121.11,827.33c-2.14-4.4-5.79-5.25-10.19-4.31l.24-.23c1.24,4.48,4.53,5.94,8.79,5.97,0,0,1.17-1.44,1.17-1.44ZM1110.91,823.02c-.57-.76-1.14-1.52-1.71-2.28.08.43,0,1.04.27,1.26.45.39,1.11.54,1.68.79,0,0-.24.23-.24.23Z"/>
</svg>