<?xml version="1.0" encoding="UTF-8"?>
<svg id="flower_black_flat" data-name="flower black flat" xmlns="http://www.w3.org/2000/svg" viewBox="0 0 297.64 419.53">
  <defs>
    <style>
      .cls-1 {
        fill: #5d816e;
      }

      .cls-2 {
        fill: #54a378;
      }
    </style>
  </defs>
  <path class="cls-2" d="M97.01,38.25c10.67-2.13,21.6,13.5,25.65,21.6,4.05,8.1,66.14,48.59,79.64,79.64,13.5,31.05-2.7,114.73-8.1,118.78-5.4,4.05-91.79-43.19-101.24-75.59-9.45-32.4,2.7-103.94,4.05-112.04,1.35-8.1-6.75-31.05,0-32.4Z"/>
  <path class="cls-1" d="M184.75,382.07c-.41,0-.83-.07-1.24-.22-1.9-.69-2.88-2.78-2.2-4.68,23.31-64.46,9.78-130.11-5.68-173.83-16.83-47.61-39.54-80.31-39.77-80.64-1.16-1.65-.76-3.93.9-5.09,1.65-1.16,3.93-.76,5.09.9.23.33,23.43,33.7,40.61,82.21,15.9,44.9,29.8,112.39,5.73,178.95-.54,1.49-1.94,2.41-3.44,2.41Z"/>
  <path class="cls-1" d="M117.59,80.04c-1.66,0-3.15-1.13-3.56-2.81-3.17-13.3-19.83-36.61-20-36.85-1.18-1.64-.8-3.93.84-5.1,1.64-1.18,3.92-.8,5.1.84.72,1,17.67,24.71,21.17,39.42.47,1.97-.75,3.94-2.71,4.41-.28.07-.57.1-.85.1Z"/>
  <path class="cls-1" d="M178.13,209.29c-4.52,0-13.13-1.92-31.82-9.1-13.77-5.29-26.71-11.07-26.84-11.13-1.84-.83-2.67-2.99-1.84-4.83.83-1.84,2.99-2.67,4.83-1.85,23.32,10.43,51.35,20.8,56.42,19.55,3.09-2.79,4.88-23.92,3.9-46.42-.09-2.02,1.48-3.72,3.5-3.81,1.97-.1,3.72,1.48,3.81,3.5.02.48.51,11.94,0,24.02-.98,23.31-4.76,27.97-8.32,29.46-.86.36-1.97.62-3.64.62ZM178.81,202h0,0Z"/>
  <path class="cls-1" d="M162.17,163.05c-6.2,0-35.47-11.49-52.7-18.48-1.87-.76-2.77-2.89-2.01-4.76.76-1.87,2.89-2.77,4.76-2.01,19.77,8.02,41.96,16.34,48.31,17.76,1.37-4.63,1.81-19.7,1.33-32.46-.08-2.02,1.5-3.72,3.52-3.79,2.05-.06,3.72,1.5,3.79,3.52.01.37.34,9.17.09,18.21-.44,15.8-2.11,21.35-6.6,21.99-.14.02-.3.03-.49.03Z"/>
</svg>