<?xml version="1.0" encoding="UTF-8"?>
<svg id="flower_black_flat" data-name="flower black flat" xmlns="http://www.w3.org/2000/svg" viewBox="0 0 297.64 419.53">
  <defs>
    <style>
      .cls-1 {
        fill: #5d816e;
      }

      .cls-2 {
        fill: #54a378;
      }
    </style>
  </defs>
  <path class="cls-2" d="M126.2,33.62s-6.9,42.92-7.66,64.37c-.77,21.46,21.46,50.58,21.46,50.58,0,0,13.79-2.3,13.79-32.95s-27.59-82-27.59-82Z"/>
  <path class="cls-2" d="M143.06,225.2s-2.3-36.02,15.33-55.94c17.63-19.92,36.78-35.25,38.32-49.05,0,0,3.83,36.02-2.3,49.81-6.13,13.79-51.34,55.18-51.34,55.18Z"/>
  <path class="cls-2" d="M158.39,326.36s3.83-42.15,16.09-55.18c12.26-13.03,52.88-46.75,54.41-55.94,1.53-9.2-6.9,46.75-18.39,61.31-11.5,14.56-26.82,25.29-31.42,35.25-4.6,9.96-20.69,14.56-20.69,14.56Z"/>
  <path class="cls-2" d="M143.06,225.2s-22.22-42.15-28.35-49.81c-6.13-7.66-39.08-46.75-58.24-48.28,0,0,31.42,36.02,33.72,48.28,2.3,12.26,0,17.63,6.9,28.35,6.9,10.73,45.98,21.46,45.98,21.46Z"/>
  <path class="cls-2" d="M158.39,326.36s-7.66-16.86-26.06-36.78c-18.39-19.92-22.22-13.79-43.68-39.85-21.46-26.06-31.42-53.64-33.72-55.18-2.3-1.53,7.66,62.84,22.99,77.4,15.33,14.56,17.63,22.22,32.19,26.82,14.56,4.6,48.28,27.59,48.28,27.59Z"/>
  <path class="cls-1" d="M151.42,391.64c-.89,0-1.78-.32-2.49-.98-1.47-1.37-1.56-3.66-.22-5.14.28-.33,18.14-21.7.7-87.8-17.02-64.54-14.48-131.19-13.4-159.65.1-2.61.19-4.92.25-6.93.06-2.02,1.76-3.61,3.77-3.54,2.02.06,3.6,1.75,3.54,3.77-.06,2.02-.15,4.35-.25,6.98-1.07,28.13-3.58,94.02,13.16,157.5,18.69,70.87-1.52,93.68-2.39,94.62-.72.78-1.7,1.17-2.68,1.17Z"/>
</svg>