<?xml version="1.0" encoding="UTF-8"?>
<svg id="flower_black_flat" data-name="flower black flat" xmlns="http://www.w3.org/2000/svg" viewBox="0 0 297.64 419.53">
  <defs>
    <style>
      .cls-1 {
        fill: #5d816e;
      }

      .cls-2 {
        fill: #54a378;
      }
    </style>
  </defs>
  <path class="cls-1" d="M203.11,396.02c-.64,0-1.29-.17-1.88-.52-.78-.47-19.31-11.73-40.38-36.36-19.38-22.67-44.57-61.42-54.48-117.32-9.94-56.09,2.23-95.44,14.19-118.57,13.05-25.25,28.41-37.03,29.05-37.51,1.61-1.22,3.91-.9,5.12.71,1.22,1.61.9,3.9-.71,5.12h0c-.15.11-14.88,11.49-27.16,35.41-11.33,22.08-22.84,59.71-13.29,113.56,9.59,54.13,33.91,91.65,52.63,113.6,20.32,23.83,38.61,34.98,38.79,35.09,1.73,1.04,2.29,3.29,1.25,5.02-.69,1.14-1.9,1.77-3.14,1.77Z"/>
  <path class="cls-2" d="M184.21,49.84c20.25,16.2-43.19,63.1-45.89,53.66-2.7-9.45,23.19-71.82,45.89-53.66Z"/>
  <path class="cls-2" d="M108.62,162.89c4.05-10.8,0-74.24-22.95-70.19s22.95,70.19,22.95,70.19Z"/>
  <path class="cls-2" d="M176.11,134.54c5.6,17.49-67.49,28.35-67.49,28.35,0,0,56.69-62.09,67.49-28.35Z"/>
  <path class="cls-2" d="M114.02,254.68s-31.05-67.49-55.34-56.69c-24.3,10.8,32.4,58.04,55.34,56.69Z"/>
  <path class="cls-2" d="M149.12,192.58c21.44,8.93-35.1,62.09-35.1,62.09,0,0,2.7-75.59,35.1-62.09Z"/>
  <path class="cls-2" d="M151.19,342.36s-43.85-59.96-65.52-44.55c-21.66,15.42,43.3,50.44,65.52,44.55Z"/>
  <path class="cls-2" d="M173.23,274.52c22.79,4.49-22.04,67.83-22.04,67.83,0,0-12.39-74.62,22.04-67.83Z"/>
</svg>