<?xml version="1.0" encoding="UTF-8"?>
<svg id="flower_black_flat" data-name="flower black flat" xmlns="http://www.w3.org/2000/svg" viewBox="0 0 297.64 419.53">
  <defs>
    <style>
      .cls-1 {
        fill: #689b69;
      }

      .cls-2 {
        fill: #5d816e;
      }
    </style>
  </defs>
  <path class="cls-1" d="M157.92,367.43c-.18,0-.37-.02-.55-.06-1.41-.3-2.31-1.69-2-3.1,15.92-73.81,8.97-141.51.34-185.3-9.35-47.43-22.59-77.71-22.73-78.01-.58-1.32.01-2.86,1.33-3.45,1.32-.58,2.86.01,3.45,1.33.13.31,13.61,31.12,23.07,79.11,8.73,44.28,15.75,112.73-.36,187.41-.26,1.22-1.35,2.06-2.55,2.06Z"/>
  <path class="cls-1" d="M161.66,211.6l-2.41-2.41c-8.24-8.24-40.64-33.35-40.97-33.6-1.14-.88-1.35-2.52-.47-3.67.88-1.14,2.52-1.35,3.66-.47,1.23.96,28.08,21.76,38.99,31.69,5.45-9.73,22.76-41.3,24.47-53.25.2-1.43,1.51-2.42,2.96-2.22,1.43.2,2.42,1.53,2.22,2.96-2.16,15.12-25.74,56.26-26.74,58l-1.7,2.96Z"/>
  <path class="cls-1" d="M161.84,336.31l-1.17-4.68c-8.18-32.72-55.9-80.74-56.38-81.22-1.02-1.02-1.02-2.67,0-3.69,1.02-1.02,2.67-1.02,3.69,0,1.92,1.92,45.16,45.43,56.41,79.07,9.7-10.87,39.15-45.02,45.99-66.39.44-1.38,1.92-2.13,3.28-1.69,1.37.44,2.13,1.91,1.69,3.28-8.53,26.67-48.55,69.96-50.25,71.79l-3.28,3.53Z"/>
  <path class="cls-2" d="M114.59,55.51s-6.34,31-1.41,49.32c4.93,18.32,33.11,26.07,33.11,26.07,0,0,7.18-23.28,4.93-31.71-5.64-21.14-36.64-43.68-36.64-43.68Z"/>
  <path class="cls-2" d="M89.13,137.74s5.61,31.14,16.99,46.32,40.42,11.92,40.42,11.92c0,0-1.97-24.29-7.18-31.27-13.08-17.54-50.23-26.97-50.23-26.97Z"/>
  <path class="cls-2" d="M203.22,104.81s-25.74,18.41-34.58,35.19c-8.85,16.78,6.54,41.63,6.54,41.63,0,0,21.1-12.18,25.18-19.88,10.25-19.33,2.86-56.94,2.86-56.94Z"/>
  <path class="cls-2" d="M69.51,212.45s6.17,34.25,18.69,50.95c12.51,16.7,44.46,13.11,44.46,13.11,0,0-2.17-26.71-7.9-34.39-14.38-19.29-55.24-29.67-55.24-29.67Z"/>
  <path class="cls-2" d="M241.96,224.26s-32.37,12.79-46.27,28.35c-13.91,15.55-4.11,46.17-4.11,46.17,0,0,25.76-7.38,32.17-14.51,16.08-17.9,18.22-60,18.22-60Z"/>
</svg>