<?xml version="1.0" encoding="UTF-8"?>
<svg id="flower_black_flat" data-name="flower black flat" xmlns="http://www.w3.org/2000/svg" viewBox="0 0 297.64 419.53">
  <defs>
    <style>
      .cls-1 {
        fill: #689b69;
      }

      .cls-2 {
        fill: #5d816e;
      }
    </style>
  </defs>
  <path class="cls-1" d="M140.61,406.54c-1.27,0-2.38-.93-2.58-2.22-16.09-106.76-.21-193.07,15.93-246.68,17.52-58.17,39.2-91.59,39.42-91.92.79-1.21,2.41-1.54,3.62-.75,1.21.79,1.54,2.41.75,3.62-.21.33-21.56,33.26-38.85,90.78-15.96,53.06-31.63,138.49-15.71,244.18.22,1.43-.77,2.76-2.19,2.97-.13.02-.26.03-.39.03Z"/>
  <path class="cls-2" d="M212.48,31.92s1.76-15.85-5.28-15.15c-7.05.7-20.08,46.15-17.97,58.83,2.11,12.68,40.51-14.8,42.27-31.35,1.76-16.56-19.02-12.33-19.02-12.33Z"/>
  <path class="cls-2" d="M163.51,137.25c-4.72,6.21-36.64-27.48-31-34.88,5.64-7.4,14.09-2.47,14.09-2.47,0,0-4.23-11.27,2.47-14.44,6.69-3.17,21.14,42.98,14.44,51.79Z"/>
  <path class="cls-2" d="M164.45,138.46c-.27,7.79,45.76,1.89,46.07-7.41.31-9.3-9.36-10.82-9.36-10.82,0,0,10.4-6.06,7.22-12.75-3.18-6.69-43.55,19.92-43.94,30.98Z"/>
  <path class="cls-2" d="M140.79,218.65c-4.39,6.45-38.02-25.53-32.78-33.21,5.24-7.68,13.94-3.2,13.94-3.2,0,0-4.81-11.04,1.71-14.55,6.52-3.51,23.35,41.82,17.12,50.96Z"/>
  <path class="cls-2" d="M141.79,219.8c.13,7.8,45.79-.5,45.62-9.8-.17-9.3-9.91-10.32-9.91-10.32,0,0,10.07-6.59,6.55-13.11-3.52-6.51-42.46,22.17-42.27,33.23Z"/>
  <path class="cls-2" d="M133.36,305.48c-3.67,8.28-48.75-21.26-44.36-31.12,4.39-9.87,15.27-6.56,15.27-6.56,0,0-7.79-11.61-1.08-16.98,6.72-5.37,35.38,42.92,30.17,54.66Z"/>
  <path class="cls-2" d="M134.74,306.59c1.78,8.88,52.22-10.1,50.08-20.69s-13.47-9.73-13.47-9.73c0,0,10.14-9.63,4.76-16.34-5.38-6.71-43.89,34.16-41.37,46.76Z"/>
</svg>