<?xml version="1.0" encoding="UTF-8"?>
<svg id="flower_black_flat" data-name="flower black flat" xmlns="http://www.w3.org/2000/svg" viewBox="0 0 297.64 419.53">
  <defs>
    <style>
      .cls-1 {
        fill: #5d816e;
      }

      .cls-2 {
        fill: #54a378;
      }
    </style>
  </defs>
  <path class="cls-2" d="M229.04,64.21c-12.42-8.28-21.14,2.11-32.41,4.93-11.27,2.82-21.84,39.46-11.27,52.84,10.57,13.39,40.16,2.82,45.09-6.34,4.93-9.16,2.11-16.21,2.11-24.66s4.93-21.14-3.52-26.77Z"/>
  <path class="cls-2" d="M214.99,264.12c-5.6-13.84-18.66-10.16-29.56-14.18-10.9-4.02-40.27,20.3-39.07,37.32,1.19,17.01,31.6,24.95,40.83,20.15,9.23-4.79,10.87-12.2,15.63-19.19,4.76-6.99,15.98-14.69,12.17-24.11Z"/>
  <path class="cls-2" d="M60.53,206.24c13.27-6.85,20.77,4.45,31.66,8.51,10.89,4.06,17.32,41.64,5.32,53.77-11.99,12.13-40.22-1.67-44.11-11.32-3.88-9.65-.3-16.34.64-24.74s-2.55-21.55,6.48-26.22Z"/>
  <path class="cls-2" d="M171.97,195.26c3.23,14,21.14,20.43,33.11,15.5,11.98-4.93,18.32-16.21,19.73-23.96s9.86-5.64,7.05-16.21c-2.82-10.57-11.27-11.27-19.73-12.68s-16.91-4.93-27.48,2.82c-10.57,7.75-14.8,25.36-12.68,34.52Z"/>
  <path class="cls-2" d="M139.38,170.73c-11.3,8.88-29.28,2.65-35.51-8.71-6.23-11.36-4.1-24.11-.33-31.03,3.77-6.92-4.14-10.58,4.68-17.04,8.83-6.46,15.85-1.71,23.32,2.5s16.26,6.77,19.63,19.43c3.37,12.67-4.39,29.03-11.79,34.84Z"/>
  <path class="cls-1" d="M106.79,368.36c-2.01,0-3.64-1.62-3.66-3.63-.55-75.55,27.29-144.86,50.75-189.71,25.39-48.53,51.3-79.74,51.56-80.05,1.29-1.55,3.6-1.76,5.15-.46,1.55,1.3,1.76,3.6.46,5.15-.26.3-25.75,31.02-50.78,78.91-23.03,44.07-50.37,112.13-49.83,186.1.01,2.02-1.61,3.67-3.63,3.68h-.03Z"/>
  <path class="cls-1" d="M143.03,210.95c-.54,0-.87-.08-1.19-.16-2.57-.64-4.8-1.2-12.71-34.27-3.67-15.33-6.86-30.74-6.89-30.89-.41-1.98.86-3.91,2.84-4.32,1.97-.41,3.91.86,4.32,2.84,5.19,25.06,11.91,52.71,14.95,59.22,6.94-1.76,32.88-12.46,56.08-22.72,1.85-.82,4.01.02,4.82,1.87.82,1.85-.02,4.01-1.87,4.82-.14.06-13.94,6.16-28.08,12.05-24.04,10.02-29.98,11.57-32.28,11.57ZM144.97,204.46s0,0,0,0h0ZM143.03,203.61h0Z"/>
  <path class="cls-1" d="M111.7,309.31c-.87,0-1.38-.17-1.84-.32-2.15-.72-5.4-1.8-22.99-36.97-8.38-16.77-16.09-33.49-16.17-33.66-.84-1.83-.04-4.01,1.79-4.85,1.83-.84,4.01-.04,4.85,1.79,13.68,29.71,30.15,62.1,34.87,66.63,6.49-.79,39.1-16.82,67.87-32.38,1.78-.96,4-.3,4.96,1.48.96,1.78.3,4-1.48,4.96-.16.09-16.36,8.84-33.13,17.23-27.64,13.82-35.57,16.11-38.74,16.11Z"/>
</svg>