<?xml version="1.0" encoding="UTF-8"?>
<svg id="flower_black_flat" data-name="flower black flat" xmlns="http://www.w3.org/2000/svg" viewBox="0 0 297.64 419.53">
  <defs>
    <style>
      .cls-1 {
        fill: #689b69;
      }

      .cls-2 {
        fill: #5d816e;
      }
    </style>
  </defs>
  <path class="cls-2" d="M84.95,29.02s53.97,24.31,68.8,50.26c14.83,25.96-7.42,72.92-7.42,72.92,0,0-30.9-13.6-39.55-30.9-8.65-17.3-21.84-92.29-21.84-92.29Z"/>
  <path class="cls-2" d="M219.26,128.72s17.3,45.73,11.12,66.74c-6.18,21.01-44.49,32.13-44.49,32.13,0,0-7.42-23.48-3.71-42.02s37.08-56.85,37.08-56.85Z"/>
  <path class="cls-2" d="M72.18,174.45s33.37,6.18,45.73,21.01c12.36,14.83,8.65,48.2,8.65,48.2,0,0-21.01,7.42-34.61-4.94-13.6-12.36-19.78-64.27-19.78-64.27Z"/>
  <path class="cls-1" d="M158.83,390.89c-.14,0-.28-.01-.42-.03-1.42-.23-2.39-1.57-2.17-2.99,15.25-94.99,2.06-175.93-11.69-227.1-14.91-55.49-33.68-88.93-33.87-89.26-.71-1.25-.27-2.85.98-3.56,1.25-.71,2.85-.27,3.56.98.19.34,19.23,34.22,34.32,90.29,13.91,51.71,27.26,133.49,11.85,229.47-.21,1.28-1.32,2.2-2.58,2.2Z"/>
  <path class="cls-1" d="M161.54,274.13c-2.81,0-7.2-2.49-15.72-10.45-6.41-6-14.72-14.71-24.7-25.89-16.94-18.98-33.08-38.83-33.24-39.02-.91-1.12-.74-2.77.38-3.68,1.12-.91,2.76-.74,3.67.38.15.19,15.23,18.73,31.49,37.04,28.98,32.65,36.34,36.06,37.88,36.35,5.2-4.35,25.87-50.86,43.18-94.14.54-1.34,2.06-1.99,3.4-1.46,1.34.54,1.99,2.06,1.46,3.4-.09.23-9.19,22.96-19.19,46.01-20.52,47.32-24.63,49.79-26.39,50.84-.64.38-1.35.62-2.22.62Z"/>
  <path class="cls-1" d="M140.4,128.55l-26.47-12.29c-1.31-.61-1.88-2.16-1.27-3.47s2.16-1.88,3.47-1.27l19.67,9.13,3-37.46c.12-1.44,1.39-2.5,2.81-2.4,1.44.12,2.51,1.37,2.4,2.81l-3.6,44.94Z"/>
  <path class="cls-1" d="M111.46,93.43c-1.36,0-2.51-1.06-2.6-2.44-.1-1.44.99-2.68,2.43-2.78l9.82-.66-.73-18.88c-.06-1.44,1.07-2.66,2.51-2.71,1.45-.06,2.66,1.07,2.71,2.51l.92,23.96-14.89.99c-.06,0-.12,0-.18,0Z"/>
  <path class="cls-1" d="M191.99,211.04l-3.34-29.57c-.16-1.43.87-2.73,2.3-2.89,1.42-.16,2.73.87,2.89,2.3l2.43,21.52,15.89-9.46c1.24-.74,2.84-.33,3.58.91.74,1.24.33,2.84-.91,3.58l-22.84,13.61Z"/>
  <path class="cls-1" d="M118.8,230.07l-22.02-.96c-1.44-.06-2.56-1.28-2.5-2.72.06-1.44,1.29-2.55,2.72-2.5l15.89.69-2.53-21.67c-.17-1.43.86-2.73,2.29-2.9,1.43-.16,2.73.86,2.9,2.29l3.24,27.76Z"/>
  <path class="cls-1" d="M103.77,212.29l-17.95-2.56c-1.43-.2-2.42-1.53-2.22-2.96.2-1.43,1.51-2.42,2.96-2.22l10.89,1.56-2.3-13.78c-.24-1.42.72-2.77,2.15-3.01,1.43-.24,2.77.72,3.01,2.15l3.47,20.82Z"/>
  <path class="cls-1" d="M206.45,179.34c-.37,0-.75-.08-1.1-.25-1.31-.61-1.87-2.17-1.26-3.47,2.23-4.78,5.36-24.97,6.37-32.35.2-1.43,1.51-2.43,2.94-2.23,1.43.2,2.43,1.52,2.23,2.94-.38,2.8-3.85,27.49-6.81,33.84-.44.95-1.39,1.51-2.37,1.51Z"/>
  <path class="cls-1" d="M204.84,186.94c-.55,0-.9-.12-1.14-.2-1.15-.39-1.97-1.31-2.23-2.52-.84-3.8-2.45-17.8-2.52-18.4-.16-1.43.87-2.73,2.3-2.89,1.43-.16,2.73.87,2.89,2.3.01.12,1.25,10.91,2.09,16.02,2.69-1.31,7.96-5.13,12.18-8.66,1.11-.93,2.75-.78,3.68.33.93,1.11.78,2.75-.32,3.68-10.7,8.97-15.03,10.35-16.93,10.35Z"/>
</svg>